<svg 
 xmlns="http://www.w3.org/2000/svg"
 xmlns:xlink="http://www.w3.org/1999/xlink"
 width="1922px" height="745px">
<path fill-rule="evenodd"  fill="rgb(237, 237, 237)"
 d="M1915.753,744.985 L1913.545,744.985 L1922.000,736.985 L1922.000,739.074 L1915.753,744.985 ZM1877.987,744.985 L1922.000,703.344 L1922.000,705.432 L1880.193,744.985 L1877.987,744.985 ZM1842.427,744.985 L1922.000,669.702 L1922.000,671.791 L1844.635,744.985 L1842.427,744.985 ZM1892.889,663.581 L1922.000,636.059 L1922.000,638.149 L1886.809,671.446 L1892.889,663.581 ZM1909.105,601.193 L1922.000,588.990 L1922.000,591.080 L1910.036,602.397 L1909.105,601.193 ZM1894.082,581.764 L1922.000,555.347 L1922.000,557.438 L1895.014,582.970 L1894.082,581.764 ZM1879.056,562.336 L1922.000,521.706 L1922.000,523.796 L1879.988,563.542 L1879.056,562.336 ZM1863.702,546.982 L1827.130,512.383 L1790.554,546.987 L1791.305,546.016 L1789.633,544.434 L1791.448,545.832 L1796.640,539.120 L1827.130,510.295 L1857.762,539.277 L1862.022,544.811 L1922.000,488.065 L1922.000,490.154 L1862.954,546.016 L1863.702,546.982 ZM1849.008,523.481 L1922.000,454.423 L1922.000,456.512 L1849.940,524.686 L1849.008,523.481 ZM1833.986,504.054 L1922.000,420.782 L1922.000,422.870 L1834.917,505.260 L1833.986,504.054 ZM1892.889,414.660 L1922.000,387.139 L1922.000,389.229 L1886.814,422.519 L1892.889,414.660 ZM1909.105,352.271 L1922.000,340.071 L1922.000,342.159 L1910.036,353.477 L1909.105,352.271 ZM1894.082,332.844 L1922.000,306.429 L1922.000,308.518 L1895.014,334.049 L1894.082,332.844 ZM1879.056,313.416 L1922.000,272.787 L1922.000,274.876 L1879.988,314.621 L1879.056,313.416 ZM1863.702,298.063 L1827.130,263.464 L1790.554,298.067 L1791.305,297.096 L1789.631,295.511 L1791.448,296.912 L1796.640,290.200 L1827.130,261.375 L1857.762,290.357 L1862.022,295.892 L1922.000,239.145 L1922.000,241.234 L1862.954,297.096 L1863.702,298.063 ZM1849.008,274.561 L1922.000,205.503 L1922.000,207.592 L1849.940,275.766 L1849.008,274.561 ZM1833.986,255.134 L1922.000,171.862 L1922.000,173.950 L1834.917,256.339 L1833.986,255.134 ZM1892.889,165.741 L1922.000,138.219 L1922.000,140.308 L1886.809,173.605 L1892.889,165.741 ZM1909.105,103.352 L1922.000,91.150 L1922.000,93.239 L1910.036,104.557 L1909.105,103.352 ZM1894.082,83.924 L1922.000,57.507 L1922.000,59.597 L1895.014,85.130 L1894.082,83.924 ZM1879.056,64.496 L1922.000,23.866 L1922.000,25.956 L1879.988,65.702 L1879.056,64.496 ZM1863.702,49.143 L1827.130,14.543 L1790.554,49.147 L1791.305,48.176 L1789.631,46.592 L1791.448,47.992 L1796.640,41.280 L1827.130,12.455 L1857.762,41.437 L1862.022,46.970 L1910.637,0.976 L1912.842,0.976 L1862.954,48.176 L1863.702,49.143 ZM1849.008,25.641 L1875.077,0.976 L1877.285,0.976 L1849.940,26.846 L1849.008,25.641 ZM1833.986,6.213 L1839.519,0.976 L1841.727,0.976 L1834.917,7.420 L1833.986,6.213 ZM1812.535,0.976 L1814.741,0.976 L1820.274,6.213 L1819.345,7.418 L1812.535,0.976 ZM1776.975,0.976 L1779.183,0.976 L1805.251,25.641 L1804.320,26.846 L1776.975,0.976 ZM1789.294,46.274 L1741.417,0.976 L1743.626,0.976 L1790.226,45.068 L1789.294,46.274 ZM1774.271,65.702 L1730.894,24.662 L1687.517,65.702 L1686.583,64.495 L1730.811,22.654 L1730.884,22.739 L1730.970,22.645 L1775.203,64.496 L1774.271,65.702 ZM1671.229,49.143 L1634.656,14.543 L1598.091,49.138 L1598.834,48.176 L1597.170,46.603 L1598.974,47.992 L1604.166,41.280 L1634.656,12.455 L1665.291,41.437 L1669.548,46.970 L1718.163,0.976 L1720.368,0.976 L1670.480,48.176 L1671.229,49.143 ZM1656.534,25.641 L1682.605,0.976 L1684.811,0.976 L1657.466,26.846 L1656.534,25.641 ZM1641.512,6.213 L1647.045,0.976 L1649.253,0.976 L1642.443,7.420 L1641.512,6.213 ZM1620.061,0.976 L1622.267,0.976 L1627.803,6.213 L1626.871,7.420 L1620.061,0.976 ZM1584.504,0.976 L1586.709,0.976 L1612.778,25.641 L1611.846,26.846 L1584.504,0.976 ZM1596.823,46.273 L1548.946,0.976 L1551.151,0.976 L1597.752,45.068 L1596.823,46.273 ZM1581.798,65.702 L1538.420,24.662 L1495.043,65.702 L1494.111,64.496 L1538.337,22.654 L1538.410,22.737 L1538.493,22.643 L1582.729,64.496 L1581.798,65.702 ZM1478.755,49.143 L1442.182,14.543 L1405.618,49.138 L1406.361,48.176 L1356.472,0.976 L1358.678,0.976 L1407.292,46.970 L1411.692,41.280 L1442.182,12.455 L1472.817,41.437 L1477.074,46.970 L1525.689,0.976 L1527.897,0.976 L1478.006,48.176 L1478.755,49.143 ZM1464.063,25.641 L1490.132,0.976 L1492.337,0.976 L1464.992,26.845 L1464.063,25.641 ZM1449.038,6.213 L1454.574,0.976 L1456.779,0.976 L1449.969,7.420 L1449.038,6.213 ZM1427.587,0.976 L1429.793,0.976 L1435.329,6.213 L1434.397,7.420 L1427.587,0.976 ZM1392.030,0.976 L1394.235,0.976 L1420.303,25.641 L1419.372,26.846 L1392.030,0.976 ZM1389.324,65.702 L1345.946,24.662 L1302.569,65.702 L1301.638,64.496 L1345.863,22.654 L1345.936,22.737 L1346.019,22.643 L1390.255,64.496 L1389.324,65.702 ZM1286.273,49.134 L1249.711,14.543 L1213.135,49.147 L1213.887,48.176 L1163.998,0.976 L1166.204,0.976 L1214.819,46.970 L1219.218,41.280 L1249.711,12.455 L1280.343,41.437 L1284.601,46.970 L1333.215,0.976 L1335.423,0.976 L1285.532,48.176 L1286.273,49.134 ZM1271.589,25.641 L1297.658,0.976 L1299.863,0.976 L1272.521,26.846 L1271.589,25.641 ZM1256.564,6.213 L1262.100,0.976 L1264.305,0.976 L1257.495,7.420 L1256.564,6.213 ZM1235.113,0.976 L1237.319,0.976 L1242.855,6.213 L1241.924,7.420 L1235.113,0.976 ZM1199.556,0.976 L1201.761,0.976 L1227.830,25.641 L1226.898,26.846 L1199.556,0.976 ZM1196.850,65.702 L1153.472,24.662 L1110.095,65.702 L1109.164,64.496 L1153.472,22.573 L1197.782,64.496 L1196.850,65.702 ZM1093.810,49.143 L1057.237,14.543 L1020.662,49.147 L1021.413,48.176 L1019.738,46.591 L1021.555,47.991 L1026.745,41.279 L1057.237,12.455 L1087.869,41.437 L1092.127,46.970 L1140.741,0.976 L1142.949,0.976 L1093.061,48.176 L1093.810,49.143 ZM1079.115,25.641 L1105.184,0.976 L1107.392,0.976 L1080.047,26.846 L1079.115,25.641 ZM1064.090,6.212 L1069.626,0.976 L1071.834,0.976 L1065.024,7.420 L1064.090,6.212 ZM1042.640,0.976 L1044.848,0.976 L1050.381,6.213 L1049.450,7.420 L1042.640,0.976 ZM1007.082,0.976 L1009.287,0.976 L1035.356,25.641 L1034.424,26.846 L1007.082,0.976 ZM1019.401,46.274 L971.525,0.976 L973.730,0.976 L1020.333,45.068 L1019.401,46.274 ZM1004.378,65.701 L960.999,24.662 L917.622,65.702 L916.690,64.496 L960.999,22.573 L1005.308,64.496 L1004.378,65.701 ZM901.336,49.143 L864.763,14.543 L828.188,49.147 L828.939,48.176 L827.264,46.591 L829.082,47.991 L834.271,41.279 L864.763,12.455 L895.396,41.437 L899.656,46.970 L948.270,0.976 L950.475,0.976 L900.587,48.176 L901.336,49.143 ZM886.642,25.641 L912.710,0.976 L914.918,0.976 L887.573,26.846 L886.642,25.641 ZM871.619,6.213 L877.152,0.976 L879.360,0.976 L872.551,7.420 L871.619,6.213 ZM850.166,0.976 L852.374,0.976 L857.907,6.213 L856.976,7.420 L850.166,0.976 ZM814.608,0.976 L816.814,0.976 L842.882,25.641 L841.953,26.845 L814.608,0.976 ZM826.928,46.274 L779.051,0.976 L781.256,0.976 L827.859,45.068 L826.928,46.274 ZM811.905,65.702 L768.528,24.662 L725.148,65.702 L724.216,64.496 L768.525,22.573 L812.836,64.496 L811.905,65.702 ZM708.862,49.143 L672.289,14.543 L635.714,49.147 L636.465,48.176 L634.790,46.591 L636.608,47.991 L641.797,41.279 L672.289,12.455 L702.922,41.437 L707.182,46.970 L755.796,0.976 L758.002,0.976 L708.113,48.176 L708.862,49.143 ZM694.168,25.641 L720.236,0.976 L722.444,0.976 L695.099,26.846 L694.168,25.641 ZM679.145,6.213 L684.679,0.976 L686.887,0.976 L680.077,7.420 L679.145,6.213 ZM657.692,0.976 L659.900,0.976 L665.434,6.213 L664.502,7.420 L657.692,0.976 ZM622.134,0.976 L624.340,0.976 L650.411,25.641 L649.479,26.846 L622.134,0.976 ZM634.454,46.274 L586.577,0.976 L588.785,0.976 L635.385,45.068 L634.454,46.274 ZM619.431,65.702 L576.054,24.662 L532.674,65.702 L531.742,64.496 L576.054,22.573 L620.362,64.496 L619.431,65.702 ZM516.388,49.143 L479.815,14.543 L443.240,49.147 L443.991,48.176 L442.316,46.592 L444.134,47.992 L449.325,41.280 L479.815,12.455 L510.448,41.437 L514.708,46.970 L563.322,0.976 L565.528,0.976 L515.639,48.176 L516.388,49.143 ZM501.694,25.641 L527.762,0.976 L529.970,0.976 L502.626,26.846 L501.694,25.641 ZM486.671,6.213 L492.205,0.976 L494.413,0.976 L487.603,7.420 L486.671,6.213 ZM465.221,0.976 L467.426,0.976 L472.960,6.213 L472.031,7.418 L465.221,0.976 ZM429.661,0.976 L431.869,0.976 L457.937,25.641 L457.005,26.846 L429.661,0.976 ZM441.980,46.274 L394.104,0.976 L396.310,0.976 L442.911,45.068 L441.980,46.274 ZM426.957,65.702 L383.580,24.662 L340.201,65.702 L339.269,64.496 L383.553,22.599 L383.626,22.672 L383.652,22.643 L427.889,64.496 L426.957,65.702 ZM323.910,49.138 L287.343,14.543 L250.770,49.143 L251.519,48.176 L249.847,46.595 L251.662,47.992 L256.853,41.280 L287.343,12.455 L317.974,41.437 L322.234,46.970 L370.849,0.976 L373.055,0.976 L323.166,48.176 L323.910,49.138 ZM309.221,25.641 L335.290,0.976 L337.496,0.976 L310.153,26.846 L309.221,25.641 ZM294.196,6.213 L299.732,0.976 L301.939,0.976 L295.129,7.420 L294.196,6.213 ZM272.747,0.976 L274.952,0.976 L280.487,6.213 L279.555,7.420 L272.747,0.976 ZM237.188,0.976 L239.395,0.976 L265.463,25.641 L264.531,26.846 L237.188,0.976 ZM249.507,46.274 L201.631,0.976 L203.837,0.976 L250.439,45.068 L249.507,46.274 ZM234.483,65.702 L191.106,24.662 L147.727,65.702 L146.796,64.496 L191.021,22.654 L191.037,22.672 L191.122,22.588 L235.415,64.496 L234.483,65.702 ZM131.436,49.138 L94.869,14.543 L58.299,49.142 L59.046,48.176 L57.377,46.598 L59.189,47.991 L64.379,41.279 L94.869,12.455 L125.500,41.437 L129.760,46.970 L178.375,0.976 L180.581,0.976 L130.692,48.176 L131.436,49.138 ZM116.747,25.641 L142.817,0.976 L145.023,0.976 L117.679,26.846 L116.747,25.641 ZM101.722,6.213 L107.258,0.976 L109.465,0.976 L102.656,7.420 L101.722,6.213 ZM80.273,0.976 L82.480,0.976 L88.015,6.213 L87.083,7.418 L80.273,0.976 ZM44.714,0.976 L46.921,0.976 L72.989,25.641 L72.058,26.846 L44.714,0.976 ZM57.035,46.274 L9.158,0.976 L11.363,0.976 L57.966,45.068 L57.035,46.274 ZM42.009,65.702 L0.000,25.956 L0.000,23.866 L42.941,64.496 L42.009,65.702 ZM26.987,85.130 L0.000,59.597 L0.000,57.507 L27.919,83.924 L26.987,85.130 ZM11.962,104.557 L0.000,93.239 L0.000,91.150 L12.895,103.351 L11.962,104.557 ZM30.750,167.859 L33.513,171.431 L94.869,113.381 L154.216,169.529 L153.474,170.488 L155.657,172.167 L160.628,165.741 L191.106,136.927 L221.728,165.898 L223.222,167.858 L225.986,171.431 L287.343,113.381 L348.698,171.431 L350.372,169.266 L353.101,165.741 L383.579,136.927 L414.200,165.898 L418.459,171.432 L479.815,113.381 L539.160,169.529 L538.388,170.528 L540.571,172.209 L545.575,165.741 L576.051,136.927 L606.675,165.898 L608.167,167.858 L610.933,171.431 L672.289,113.381 L733.646,171.431 L737.984,165.823 L768.525,136.927 L799.149,165.898 L800.644,167.858 L803.407,171.431 L864.763,113.381 L926.120,171.432 L928.853,167.895 L930.520,165.741 L960.999,136.927 L991.623,165.898 L993.118,167.858 L995.880,171.431 L1057.237,113.381 L1118.593,171.432 L1121.327,167.895 L1122.993,165.741 L1153.472,136.927 L1184.097,165.898 L1185.589,167.858 L1188.354,171.431 L1249.711,113.381 L1311.065,171.431 L1315.467,165.741 L1345.922,136.951 L1345.936,136.965 L1345.960,136.941 L1376.568,165.898 L1380.825,171.432 L1442.182,113.381 L1503.539,171.431 L1504.486,170.207 L1507.941,165.741 L1538.396,136.951 L1538.410,136.965 L1538.434,136.941 L1569.042,165.898 L1573.299,171.432 L1634.656,113.381 L1694.001,169.529 L1693.072,170.735 L1634.656,115.469 L1574.231,172.637 L1574.979,173.604 L1538.420,139.015 L1501.848,173.616 L1502.607,172.636 L1442.182,115.469 L1381.757,172.638 L1382.506,173.603 L1345.946,139.015 L1309.385,173.606 L1310.136,172.636 L1249.711,115.469 L1189.283,172.638 L1190.032,173.603 L1153.472,139.015 L1116.911,173.606 L1117.662,172.636 L1057.237,115.469 L996.812,172.637 L997.566,173.613 L960.999,139.015 L924.431,173.613 L925.188,172.636 L864.763,115.469 L804.338,172.637 L805.092,173.610 L768.528,139.015 L731.955,173.616 L732.714,172.636 L672.289,115.469 L611.864,172.637 L612.615,173.609 L576.054,139.015 L539.484,173.615 L540.240,172.636 L479.815,115.469 L419.391,172.637 L420.144,173.610 L383.580,139.015 L347.014,173.610 L347.768,172.636 L287.343,115.469 L226.917,172.637 L227.666,173.606 L191.106,139.015 L154.540,173.610 L155.294,172.636 L94.869,115.469 L34.445,172.637 L35.197,173.610 L0.000,140.308 L0.000,138.220 L29.254,165.898 L30.750,167.859 ZM87.083,256.338 L0.000,173.950 L0.000,171.862 L88.015,255.134 L87.083,256.338 ZM72.058,275.766 L0.000,207.592 L0.000,205.503 L72.989,274.561 L72.058,275.766 ZM57.035,295.194 L0.000,241.234 L0.000,239.145 L57.965,293.990 L57.035,295.194 ZM42.009,314.622 L0.000,274.876 L0.000,272.787 L42.941,313.416 L42.009,314.622 ZM26.987,334.049 L0.000,308.518 L0.000,306.429 L27.918,332.844 L26.987,334.049 ZM11.962,353.477 L0.000,342.159 L0.000,340.071 L12.895,352.271 L11.962,353.477 ZM30.750,416.779 L33.513,420.351 L94.869,362.301 L154.216,418.449 L153.284,419.654 L94.869,364.389 L34.444,421.557 L35.194,422.527 L0.000,389.229 L0.000,387.141 L29.254,414.818 L30.750,416.779 ZM87.083,505.258 L0.000,422.870 L0.000,420.782 L88.015,504.054 L87.083,505.258 ZM72.058,524.686 L0.000,456.512 L0.000,454.423 L72.989,523.481 L72.058,524.686 ZM57.035,544.114 L0.000,490.154 L0.000,488.065 L57.966,542.908 L57.035,544.114 ZM42.009,563.542 L0.000,523.796 L0.000,521.706 L42.941,562.336 L42.009,563.542 ZM26.987,582.970 L0.000,557.438 L0.000,555.347 L27.919,581.764 L26.987,582.970 ZM11.962,602.397 L0.000,591.080 L0.000,588.990 L12.895,601.191 L11.962,602.397 ZM30.750,665.700 L33.513,669.271 L94.869,611.221 L154.216,667.369 L153.474,668.328 L155.657,670.007 L160.628,663.581 L191.106,634.767 L221.728,663.738 L223.222,665.698 L225.986,669.271 L287.343,611.221 L348.698,669.271 L350.372,667.107 L353.101,663.581 L383.579,634.767 L414.200,663.738 L418.459,669.272 L479.815,611.221 L539.160,667.369 L538.388,668.369 L540.571,670.048 L545.575,663.581 L576.051,634.767 L606.675,663.738 L608.167,665.698 L610.933,669.271 L672.289,611.221 L733.646,669.271 L737.984,663.663 L768.525,634.767 L799.149,663.738 L800.644,665.698 L803.407,669.271 L864.763,611.221 L926.120,669.272 L928.853,665.735 L930.520,663.581 L960.999,634.767 L991.623,663.738 L993.118,665.698 L995.880,669.271 L1057.237,611.221 L1118.593,669.272 L1121.327,665.735 L1122.993,663.581 L1153.472,634.767 L1184.097,663.738 L1185.589,665.698 L1188.354,669.271 L1249.711,611.221 L1311.065,669.271 L1315.467,663.581 L1345.922,634.791 L1345.936,634.806 L1345.960,634.781 L1376.568,663.738 L1380.825,669.272 L1442.182,611.221 L1503.539,669.271 L1504.486,668.048 L1507.941,663.581 L1538.396,634.791 L1538.410,634.806 L1538.434,634.781 L1569.042,663.738 L1573.299,669.272 L1634.656,611.221 L1694.001,667.369 L1693.072,668.575 L1634.656,613.309 L1574.231,670.477 L1574.979,671.444 L1538.420,636.856 L1501.848,671.456 L1502.607,670.476 L1442.182,613.309 L1381.757,670.479 L1382.506,671.443 L1345.946,636.856 L1309.385,671.447 L1310.136,670.476 L1249.711,613.309 L1189.283,670.479 L1190.032,671.443 L1153.472,636.856 L1116.911,671.447 L1117.662,670.476 L1057.237,613.309 L996.812,670.477 L997.566,671.454 L960.999,636.856 L924.431,671.454 L925.188,670.476 L864.763,613.309 L804.338,670.477 L805.092,671.451 L768.528,636.856 L731.955,671.456 L732.714,670.476 L672.289,613.309 L611.864,670.477 L612.615,671.450 L576.054,636.856 L539.484,671.455 L540.240,670.476 L479.815,613.309 L419.391,670.477 L420.144,671.451 L383.580,636.856 L347.014,671.451 L347.768,670.476 L287.343,613.309 L226.917,670.477 L227.666,671.447 L191.106,636.856 L154.540,671.451 L155.294,670.476 L94.869,613.309 L34.445,670.477 L35.197,671.451 L0.000,638.149 L0.000,636.061 L29.254,663.738 L30.750,665.700 ZM77.364,744.985 L0.000,671.791 L0.000,669.702 L79.570,744.985 L77.364,744.985 ZM41.805,744.985 L0.000,705.432 L0.000,703.344 L44.013,744.985 L41.805,744.985 ZM6.247,744.985 L0.000,739.074 L0.000,736.985 L8.455,744.985 L6.247,744.985 ZM109.143,725.652 L108.212,726.857 L94.869,714.234 L81.526,726.858 L80.595,725.652 L94.869,712.146 L109.143,725.652 ZM124.167,706.223 L123.236,707.430 L94.869,680.592 L66.502,707.430 L65.571,706.223 L94.869,678.504 L124.167,706.223 ZM50.548,686.796 L94.869,644.863 L139.191,686.796 L138.260,688.002 L94.869,646.951 L51.480,688.002 L50.548,686.796 ZM272.044,744.985 L269.837,744.985 L191.106,670.498 L112.374,744.985 L110.168,744.985 L191.106,668.408 L272.044,744.985 ZM236.485,744.985 L234.279,744.985 L191.106,704.139 L147.933,744.985 L145.725,744.985 L191.106,702.050 L236.485,744.985 ZM200.928,744.985 L198.721,744.985 L191.106,737.781 L183.491,744.985 L181.284,744.985 L191.106,735.692 L200.928,744.985 ZM301.616,725.652 L300.684,726.858 L287.343,714.234 L274.000,726.858 L273.069,725.652 L287.343,712.146 L301.616,725.652 ZM316.641,706.223 L315.709,707.428 L287.343,680.592 L258.976,707.430 L258.044,706.223 L287.343,678.504 L316.641,706.223 ZM243.020,686.796 L287.343,644.863 L331.665,686.796 L330.732,688.002 L287.343,646.951 L243.952,688.002 L243.020,686.796 ZM464.518,744.985 L462.310,744.985 L383.580,670.498 L304.848,744.985 L302.640,744.985 L383.580,668.408 L464.518,744.985 ZM428.958,744.985 L426.752,744.985 L383.580,704.139 L340.406,744.985 L338.199,744.985 L383.579,702.050 L428.958,744.985 ZM393.402,744.985 L391.195,744.985 L383.580,737.781 L375.965,744.985 L373.758,744.985 L383.580,735.692 L393.402,744.985 ZM494.090,725.652 L493.158,726.858 L479.815,714.234 L466.473,726.858 L465.541,725.652 L479.815,712.146 L494.090,725.652 ZM509.112,706.223 L508.183,707.428 L479.815,680.592 L451.450,707.430 L450.518,706.223 L479.815,678.504 L509.112,706.223 ZM435.493,686.796 L479.815,644.863 L524.138,686.796 L523.206,688.002 L479.815,646.951 L436.425,688.002 L435.493,686.796 ZM656.992,744.985 L654.784,744.985 L576.054,670.498 L497.321,744.985 L495.113,744.985 L576.054,668.408 L656.992,744.985 ZM621.432,744.985 L619.226,744.985 L576.054,704.139 L532.878,744.985 L530.673,744.985 L576.054,702.050 L621.432,744.985 ZM585.874,744.985 L583.669,744.985 L576.054,737.781 L568.439,744.985 L566.231,744.985 L576.054,735.692 L585.874,744.985 ZM686.563,725.652 L685.632,726.858 L672.289,714.234 L658.947,726.858 L658.015,725.652 L672.289,712.146 L686.563,725.652 ZM701.586,706.223 L700.655,707.430 L672.289,680.592 L643.924,707.430 L642.992,706.223 L672.289,678.504 L701.586,706.223 ZM627.967,686.796 L672.289,644.863 L716.612,686.796 L715.680,688.002 L672.289,646.951 L628.899,688.002 L627.967,686.796 ZM849.466,744.985 L847.258,744.985 L768.528,670.498 L689.795,744.985 L687.587,744.985 L768.525,668.408 L849.466,744.985 ZM813.905,744.985 L811.700,744.985 L768.528,704.139 L725.352,744.985 L723.147,744.985 L768.525,702.050 L813.905,744.985 ZM778.348,744.985 L776.140,744.985 L768.528,737.781 L760.913,744.985 L758.705,744.985 L768.525,735.692 L778.348,744.985 ZM879.037,725.652 L878.106,726.858 L864.763,714.234 L851.421,726.858 L850.489,725.652 L864.763,712.146 L879.037,725.652 ZM894.060,706.223 L893.128,707.430 L864.763,680.592 L836.398,707.430 L835.466,706.223 L864.763,678.504 L894.060,706.223 ZM820.441,686.796 L864.763,644.863 L909.086,686.796 L908.154,688.002 L864.763,646.951 L821.372,688.002 L820.441,686.796 ZM1041.937,744.985 L1039.731,744.985 L960.999,670.498 L882.269,744.985 L880.061,744.985 L960.999,668.408 L1041.937,744.985 ZM1006.379,744.985 L1004.171,744.985 L960.999,704.139 L917.826,744.985 L915.618,744.985 L960.999,702.050 L1006.379,744.985 ZM970.822,744.985 L968.614,744.985 L961.001,737.781 L953.386,744.985 L951.178,744.985 L961.001,735.692 L970.822,744.985 ZM1071.511,725.652 L1070.579,726.858 L1057.237,714.234 L1043.894,726.858 L1042.963,725.652 L1057.237,712.146 L1071.511,725.652 ZM1086.534,706.223 L1085.602,707.430 L1057.237,680.592 L1028.872,707.430 L1027.937,706.222 L1057.237,678.504 L1086.534,706.223 ZM1012.915,686.796 L1057.237,644.863 L1101.559,686.797 L1100.628,688.002 L1057.237,646.951 L1013.846,688.002 L1012.915,686.796 ZM1234.411,744.985 L1232.205,744.985 L1153.472,670.498 L1074.742,744.985 L1072.534,744.985 L1153.472,668.408 L1234.411,744.985 ZM1198.853,744.985 L1196.645,744.985 L1153.472,704.139 L1110.300,744.985 L1108.092,744.985 L1153.472,702.050 L1198.853,744.985 ZM1163.296,744.985 L1161.088,744.985 L1153.472,737.781 L1145.857,744.985 L1143.652,744.985 L1153.472,735.692 L1163.296,744.985 ZM1263.982,725.652 L1263.053,726.857 L1249.711,714.234 L1236.368,726.858 L1235.437,725.652 L1249.711,712.146 L1263.982,725.652 ZM1279.008,706.223 L1278.076,707.430 L1249.711,680.592 L1221.343,707.430 L1220.411,706.223 L1249.711,678.504 L1279.008,706.223 ZM1205.389,686.796 L1249.711,644.863 L1294.031,686.796 L1293.099,688.002 L1249.711,646.951 L1206.320,688.002 L1205.389,686.796 ZM1345.936,668.448 L1345.960,668.423 L1426.885,744.985 L1424.679,744.985 L1345.946,670.498 L1267.216,744.985 L1265.008,744.985 L1345.922,668.433 L1345.936,668.448 ZM1345.936,702.089 L1345.960,702.065 L1391.327,744.985 L1389.119,744.985 L1345.946,704.139 L1302.774,744.985 L1300.566,744.985 L1345.922,702.075 L1345.936,702.089 ZM1345.936,735.730 L1345.960,735.706 L1355.769,744.985 L1353.562,744.985 L1345.946,737.781 L1338.331,744.985 L1336.126,744.985 L1345.922,735.716 L1345.936,735.730 ZM1456.456,725.652 L1455.525,726.858 L1442.182,714.234 L1428.839,726.857 L1427.910,725.652 L1442.182,712.146 L1456.456,725.652 ZM1471.482,706.223 L1470.550,707.430 L1442.182,680.592 L1413.817,707.430 L1412.885,706.223 L1442.182,678.504 L1471.482,706.223 ZM1397.862,686.796 L1442.182,644.863 L1486.504,686.796 L1485.573,688.002 L1442.182,646.951 L1398.794,688.002 L1397.862,686.796 ZM1538.410,668.448 L1538.434,668.423 L1619.359,744.985 L1617.150,744.985 L1538.420,670.498 L1459.687,744.985 L1457.482,744.985 L1538.396,668.433 L1538.410,668.448 ZM1538.410,702.089 L1538.434,702.065 L1583.801,744.985 L1581.593,744.985 L1538.420,704.139 L1495.248,744.985 L1493.040,744.985 L1538.396,702.075 L1538.410,702.089 ZM1538.410,735.728 L1538.434,735.706 L1548.244,744.985 L1546.035,744.985 L1538.420,737.781 L1530.805,744.985 L1528.597,744.985 L1538.396,735.716 L1538.410,735.728 ZM1648.930,725.652 L1647.998,726.858 L1634.656,714.234 L1621.314,726.858 L1620.382,725.652 L1634.656,712.146 L1648.930,725.652 ZM1663.956,706.223 L1663.024,707.430 L1634.656,680.592 L1606.291,707.430 L1605.359,706.223 L1634.656,678.504 L1663.956,706.223 ZM1590.336,686.796 L1634.656,644.863 L1678.978,686.796 L1678.047,688.002 L1634.656,646.951 L1591.268,688.002 L1590.336,686.796 ZM1730.884,668.448 L1730.908,668.423 L1811.832,744.985 L1809.624,744.985 L1730.894,670.498 L1652.161,744.985 L1649.956,744.985 L1730.870,668.433 L1730.884,668.448 ZM1730.884,702.091 L1730.910,702.067 L1776.272,744.985 L1774.067,744.985 L1730.894,704.139 L1687.721,744.985 L1685.514,744.985 L1730.870,702.075 L1730.884,702.091 ZM1730.884,735.730 L1730.908,735.707 L1740.715,744.985 L1738.509,744.985 L1730.894,737.781 L1723.279,744.985 L1721.071,744.985 L1730.870,735.716 L1730.884,735.730 ZM1827.130,680.592 L1798.765,707.430 L1797.833,706.223 L1827.130,678.504 L1856.427,706.223 L1855.498,707.428 L1827.130,680.592 ZM1827.130,646.951 L1783.739,688.002 L1782.807,686.796 L1827.130,644.863 L1871.452,686.796 L1870.521,688.002 L1827.130,646.951 ZM1827.130,613.309 L1766.705,670.477 L1767.459,671.451 L1730.894,636.856 L1694.324,671.455 L1696.912,668.112 L1700.415,663.581 L1730.870,634.791 L1730.884,634.806 L1730.908,634.781 L1761.516,663.738 L1765.773,669.272 L1827.130,611.221 L1886.475,667.369 L1885.543,668.574 L1827.130,613.309 ZM1827.130,579.668 L1753.693,649.147 L1752.762,647.941 L1827.130,577.579 L1901.500,647.941 L1900.569,649.147 L1827.130,579.668 ZM1916.523,628.513 L1915.592,629.719 L1827.130,546.026 L1738.668,629.719 L1737.736,628.513 L1827.130,543.937 L1916.523,628.513 ZM1730.894,488.861 L1670.480,546.016 L1671.229,546.983 L1634.656,512.383 L1598.091,546.978 L1598.834,546.016 L1597.173,544.445 L1598.974,545.832 L1604.166,539.120 L1634.656,510.295 L1665.291,539.277 L1669.548,544.811 L1730.870,486.796 L1730.884,486.811 L1730.908,486.787 L1790.226,542.908 L1789.294,544.114 L1730.894,488.861 ZM1730.894,455.219 L1657.466,524.686 L1656.534,523.481 L1730.870,453.154 L1730.884,453.170 L1730.910,453.146 L1805.251,523.481 L1804.320,524.686 L1730.894,455.219 ZM1730.894,421.577 L1642.443,505.260 L1641.512,504.054 L1730.870,419.513 L1730.884,419.529 L1730.910,419.505 L1820.274,504.054 L1819.345,505.258 L1730.894,421.577 ZM1827.130,465.314 L1813.787,477.938 L1812.856,476.732 L1827.130,463.225 L1841.404,476.732 L1840.472,477.938 L1827.130,465.314 ZM1827.130,431.672 L1798.765,458.510 L1797.833,457.303 L1827.130,429.584 L1856.427,457.303 L1855.498,458.508 L1827.130,431.672 ZM1827.130,398.030 L1783.739,439.082 L1782.807,437.875 L1827.130,395.943 L1871.452,437.875 L1870.521,439.082 L1827.130,398.030 ZM1827.130,364.389 L1766.705,421.557 L1767.456,422.527 L1730.894,387.936 L1694.340,422.519 L1700.415,414.660 L1730.870,385.871 L1730.884,385.886 L1730.908,385.861 L1761.516,414.818 L1765.773,420.352 L1827.130,362.301 L1886.475,418.449 L1885.543,419.654 L1827.130,364.389 ZM1827.130,330.748 L1753.693,400.227 L1752.762,399.021 L1827.130,328.659 L1901.500,399.021 L1900.569,400.227 L1827.130,330.748 ZM1916.523,379.593 L1915.592,380.799 L1827.130,297.106 L1738.668,380.799 L1737.736,379.593 L1827.130,295.017 L1916.523,379.593 ZM1730.894,239.941 L1670.480,297.096 L1671.229,298.063 L1634.656,263.464 L1598.089,298.059 L1598.834,297.096 L1597.170,295.523 L1598.974,296.912 L1604.166,290.200 L1634.656,261.375 L1665.291,290.357 L1669.548,295.892 L1730.870,237.876 L1730.884,237.891 L1730.908,237.867 L1790.226,293.990 L1789.294,295.194 L1730.894,239.941 ZM1730.894,206.299 L1657.466,275.766 L1656.534,274.561 L1730.870,204.234 L1730.884,204.250 L1730.910,204.226 L1805.251,274.561 L1804.320,275.766 L1730.894,206.299 ZM1678.978,188.955 L1678.047,190.161 L1634.656,149.110 L1591.268,190.161 L1590.336,188.955 L1634.656,147.022 L1678.978,188.955 ZM1606.291,209.589 L1605.359,208.383 L1634.656,180.664 L1663.956,208.383 L1663.024,209.589 L1634.656,182.752 L1606.291,209.589 ZM1634.656,216.394 L1621.314,229.017 L1620.382,227.812 L1634.656,214.305 L1648.930,227.812 L1647.998,229.017 L1634.656,216.394 ZM1538.410,170.607 L1538.434,170.583 L1627.803,255.134 L1626.871,256.339 L1538.420,172.657 L1449.969,256.339 L1449.038,255.134 L1538.396,170.592 L1538.410,170.607 ZM1486.504,188.955 L1485.573,190.161 L1442.182,149.110 L1398.794,190.161 L1397.862,188.955 L1442.182,147.022 L1486.504,188.955 ZM1345.936,170.607 L1345.960,170.583 L1435.329,255.134 L1434.397,256.339 L1345.946,172.657 L1257.495,256.339 L1256.564,255.134 L1345.922,170.592 L1345.936,170.607 ZM1294.031,188.955 L1293.099,190.161 L1249.711,149.110 L1206.320,190.161 L1205.389,188.955 L1249.711,147.022 L1294.031,188.955 ZM1242.855,255.134 L1241.924,256.339 L1153.472,172.657 L1065.024,256.339 L1064.090,255.132 L1153.472,170.568 L1242.855,255.134 ZM1101.559,188.956 L1100.628,190.161 L1057.237,149.110 L1013.846,190.161 L1012.915,188.955 L1057.237,147.022 L1101.559,188.956 ZM1050.381,255.134 L1049.450,256.339 L960.999,172.657 L872.551,256.339 L871.619,255.134 L960.999,170.568 L1050.381,255.134 ZM909.086,188.955 L908.154,190.161 L864.763,149.110 L821.372,190.161 L820.441,188.955 L864.763,147.022 L909.086,188.955 ZM857.907,255.134 L856.976,256.339 L768.528,172.657 L680.077,256.339 L679.145,255.134 L768.525,170.568 L857.907,255.134 ZM716.612,188.955 L715.680,190.161 L672.289,149.110 L628.899,190.161 L627.967,188.955 L672.289,147.022 L716.612,188.955 ZM665.434,255.134 L664.502,256.339 L576.054,172.657 L487.603,256.339 L486.671,255.134 L576.054,170.568 L665.434,255.134 ZM524.138,188.955 L523.206,190.161 L479.815,149.110 L436.425,190.161 L435.493,188.955 L479.815,147.022 L524.138,188.955 ZM472.960,255.134 L472.031,256.338 L383.580,172.657 L295.129,256.339 L294.197,255.134 L383.579,170.568 L472.960,255.134 ZM331.665,188.955 L330.732,190.161 L287.343,149.110 L243.952,190.161 L243.020,188.955 L287.343,147.022 L331.665,188.955 ZM280.487,255.134 L279.555,256.339 L191.106,172.657 L102.656,256.339 L101.723,255.134 L191.106,170.568 L280.487,255.134 ZM50.548,188.955 L94.869,147.022 L139.191,188.955 L138.260,190.161 L94.869,149.110 L51.480,190.161 L50.548,188.955 ZM65.571,208.383 L94.869,180.664 L124.167,208.383 L123.236,209.589 L94.869,182.752 L66.502,209.589 L65.571,208.383 ZM80.595,227.812 L94.869,214.305 L109.143,227.812 L108.212,229.016 L94.869,216.394 L81.526,229.017 L80.595,227.812 ZM117.679,275.766 L116.747,274.561 L191.106,204.210 L265.463,274.561 L264.531,275.766 L191.106,206.299 L117.679,275.766 ZM258.976,209.589 L258.044,208.383 L287.343,180.664 L316.641,208.383 L315.709,209.588 L287.343,182.752 L258.976,209.589 ZM287.343,216.394 L274.000,229.017 L273.069,227.812 L287.343,214.305 L301.616,227.812 L300.684,229.017 L287.343,216.394 ZM59.189,296.912 L64.379,290.200 L94.869,261.375 L125.500,290.357 L129.760,295.892 L191.106,237.852 L252.450,295.892 L256.853,290.200 L287.343,261.375 L317.974,290.357 L322.234,295.892 L383.580,237.852 L442.911,293.990 L441.980,295.194 L383.580,239.941 L323.166,297.096 L323.910,298.059 L287.343,263.464 L250.769,298.066 L251.519,297.096 L191.106,239.941 L130.692,297.096 L131.436,298.059 L94.869,263.464 L58.298,298.063 L59.046,297.096 L57.377,295.516 L59.189,296.912 ZM5.476,379.593 L94.869,295.017 L184.262,379.593 L183.329,380.799 L94.869,297.106 L6.407,380.799 L5.476,379.593 ZM21.431,400.227 L20.500,399.021 L94.869,328.659 L169.238,399.021 L168.307,400.227 L94.869,330.748 L21.431,400.227 ZM191.106,385.847 L221.728,414.818 L223.222,416.778 L225.986,420.351 L287.343,362.301 L346.688,418.449 L345.756,419.654 L287.343,364.389 L226.917,421.557 L227.665,422.524 L191.106,387.936 L154.552,422.519 L160.628,414.660 L191.106,385.847 ZM280.487,504.054 L279.555,505.260 L191.106,421.577 L102.656,505.260 L101.722,504.054 L191.106,419.488 L280.487,504.054 ZM50.548,437.875 L94.869,395.943 L139.191,437.875 L138.260,439.082 L94.869,398.030 L51.480,439.082 L50.548,437.875 ZM65.571,457.303 L94.869,429.584 L124.167,457.303 L123.236,458.510 L94.869,431.672 L66.502,458.510 L65.571,457.303 ZM80.595,476.732 L94.869,463.225 L109.143,476.732 L108.212,477.937 L94.869,465.314 L81.526,477.938 L80.595,476.732 ZM59.189,545.832 L64.379,539.120 L94.869,510.295 L125.500,539.277 L129.760,544.811 L191.106,486.772 L250.439,542.908 L249.507,544.114 L191.106,488.861 L130.692,546.016 L131.436,546.978 L94.869,512.383 L58.299,546.982 L59.046,546.016 L57.379,544.439 L59.189,545.832 ZM177.776,602.397 L176.844,601.193 L191.106,587.697 L205.368,601.191 L204.436,602.397 L191.106,589.786 L177.776,602.397 ZM191.121,554.069 L220.392,581.764 L219.459,582.970 L191.106,556.144 L162.752,582.970 L161.820,581.764 L191.023,554.135 L191.037,554.151 L191.121,554.069 ZM146.796,562.336 L191.021,520.494 L191.037,520.512 L191.122,520.429 L235.415,562.336 L234.483,563.542 L191.106,522.503 L147.727,563.542 L146.796,562.336 ZM370.248,602.397 L369.318,601.193 L383.580,587.697 L397.842,601.191 L396.910,602.397 L383.580,589.786 L370.248,602.397 ZM562.722,602.397 L561.790,601.193 L576.054,587.697 L590.315,601.191 L589.383,602.397 L576.054,589.786 L562.722,602.397 ZM755.196,602.397 L754.264,601.193 L768.528,587.697 L782.788,601.191 L781.857,602.397 L768.528,589.786 L755.196,602.397 ZM947.670,602.397 L946.738,601.193 L961.001,587.697 L975.262,601.191 L974.330,602.397 L960.999,589.786 L947.670,602.397 ZM1140.144,602.397 L1139.212,601.193 L1153.475,587.697 L1167.736,601.191 L1166.804,602.397 L1153.472,589.786 L1140.144,602.397 ZM1332.617,602.397 L1331.686,601.193 L1345.920,587.723 L1345.936,587.738 L1345.960,587.712 L1360.210,601.191 L1359.278,602.397 L1345.946,589.786 L1332.617,602.397 ZM1525.089,602.396 L1524.160,601.193 L1538.396,587.721 L1538.410,587.736 L1538.434,587.712 L1552.684,601.191 L1551.752,602.397 L1538.420,589.786 L1525.089,602.396 ZM1538.493,554.125 L1567.707,581.764 L1566.775,582.970 L1538.420,556.144 L1510.066,582.970 L1509.134,581.764 L1538.337,554.135 L1538.410,554.217 L1538.493,554.125 ZM1494.111,562.336 L1538.337,520.494 L1538.410,520.578 L1538.493,520.483 L1582.729,562.336 L1581.798,563.542 L1538.420,522.503 L1495.043,563.542 L1494.111,562.336 ZM1346.019,554.125 L1375.233,581.764 L1374.301,582.970 L1345.946,556.144 L1317.592,582.970 L1316.660,581.764 L1345.863,554.135 L1345.936,554.217 L1346.019,554.125 ZM1301.638,562.336 L1345.863,520.494 L1345.936,520.578 L1346.019,520.483 L1390.255,562.336 L1389.324,563.542 L1345.946,522.503 L1302.569,563.542 L1301.638,562.336 ZM1182.759,581.764 L1181.827,582.970 L1153.472,556.144 L1125.118,582.970 L1124.186,581.764 L1153.472,554.056 L1182.759,581.764 ZM1109.164,562.336 L1153.472,520.414 L1197.782,562.336 L1196.850,563.542 L1153.472,522.503 L1110.095,563.542 L1109.164,562.336 ZM1538.420,488.861 L1478.006,546.016 L1478.755,546.983 L1442.182,512.383 L1405.618,546.978 L1406.361,546.016 L1345.946,488.861 L1285.532,546.016 L1286.273,546.974 L1249.711,512.383 L1213.135,546.987 L1213.887,546.016 L1153.472,488.861 L1093.061,546.016 L1093.810,546.983 L1057.237,512.383 L1020.662,546.987 L1021.413,546.016 L1019.738,544.434 L1021.555,545.831 L1026.745,539.119 L1057.237,510.295 L1087.869,539.277 L1092.127,544.811 L1153.472,486.772 L1214.819,544.811 L1219.218,539.120 L1249.711,510.295 L1280.343,539.277 L1284.601,544.811 L1345.922,486.796 L1345.936,486.811 L1345.960,486.787 L1407.292,544.811 L1411.692,539.120 L1442.182,510.295 L1472.817,539.277 L1477.074,544.811 L1538.396,486.796 L1538.410,486.811 L1538.434,486.787 L1597.752,542.908 L1596.823,544.113 L1538.420,488.861 ZM1538.420,455.219 L1464.992,524.685 L1464.063,523.481 L1538.396,453.154 L1538.410,453.169 L1538.434,453.145 L1612.778,523.481 L1611.846,524.686 L1538.420,455.219 ZM1538.420,421.577 L1449.969,505.260 L1449.038,504.054 L1538.396,419.513 L1538.410,419.527 L1538.434,419.503 L1627.803,504.054 L1626.871,505.260 L1538.420,421.577 ZM1634.656,465.314 L1621.314,477.938 L1620.382,476.732 L1634.656,463.225 L1648.930,476.732 L1647.998,477.938 L1634.656,465.314 ZM1634.656,431.672 L1606.291,458.510 L1605.359,457.303 L1634.656,429.584 L1663.956,457.303 L1663.024,458.510 L1634.656,431.672 ZM1634.656,398.030 L1591.268,439.082 L1590.336,437.875 L1634.656,395.943 L1678.978,437.875 L1678.047,439.082 L1634.656,398.030 ZM1634.656,364.389 L1574.231,421.557 L1574.977,422.520 L1538.420,387.936 L1501.866,422.519 L1507.941,414.660 L1538.396,385.871 L1538.410,385.886 L1538.434,385.861 L1569.042,414.818 L1573.299,420.352 L1634.656,362.301 L1694.001,418.449 L1693.072,419.655 L1634.656,364.389 ZM1634.656,330.748 L1561.220,400.227 L1560.288,399.021 L1634.656,328.659 L1709.026,399.021 L1708.095,400.227 L1634.656,330.748 ZM1035.356,274.561 L1034.424,275.766 L960.999,206.299 L887.573,275.766 L886.642,274.561 L960.999,204.210 L1035.356,274.561 ZM842.882,274.561 L841.953,275.765 L768.528,206.299 L695.099,275.766 L694.168,274.561 L768.525,204.210 L842.882,274.561 ZM650.411,274.561 L649.479,275.766 L576.054,206.299 L502.626,275.766 L501.694,274.561 L576.051,204.210 L650.411,274.561 ZM569.209,379.593 L568.277,380.799 L479.815,297.106 L391.355,380.799 L390.422,379.593 L479.815,295.017 L569.209,379.593 ZM427.889,313.416 L426.957,314.622 L383.580,273.582 L340.201,314.621 L339.269,313.416 L383.580,271.494 L427.889,313.416 ZM213.905,400.227 L212.974,399.021 L287.343,328.659 L361.712,399.021 L360.779,400.227 L287.343,330.748 L213.905,400.227 ZM355.225,334.049 L354.294,332.844 L383.580,305.135 L412.866,332.844 L411.933,334.050 L383.580,307.224 L355.225,334.049 ZM383.580,340.866 L370.248,353.477 L369.316,352.271 L383.580,338.777 L397.842,352.271 L396.910,353.477 L383.580,340.866 ZM383.579,385.847 L414.200,414.818 L418.459,420.352 L479.815,362.301 L539.160,418.449 L538.229,419.654 L479.815,364.389 L419.391,421.557 L420.142,422.527 L383.580,387.936 L347.021,422.524 L353.101,414.660 L383.579,385.847 ZM472.960,504.054 L472.031,505.258 L383.580,421.577 L295.129,505.260 L294.196,504.054 L383.579,419.488 L472.960,504.054 ZM243.020,437.875 L287.343,395.943 L331.665,437.875 L330.732,439.082 L287.343,398.030 L243.952,439.082 L243.020,437.875 ZM258.044,457.303 L287.343,429.584 L316.641,457.303 L315.709,458.508 L287.343,431.672 L258.976,458.510 L258.044,457.303 ZM273.069,476.732 L287.343,463.225 L301.616,476.732 L300.684,477.938 L287.343,465.314 L274.000,477.938 L273.069,476.732 ZM310.153,524.686 L309.221,523.481 L383.579,453.130 L457.937,523.481 L457.005,524.686 L383.580,455.219 L310.153,524.686 ZM960.999,455.219 L887.573,524.686 L886.642,523.481 L960.999,453.130 L1035.356,523.481 L1034.424,524.686 L960.999,455.219 ZM960.999,421.577 L872.551,505.260 L871.619,504.054 L960.999,419.488 L1050.381,504.054 L1049.450,505.260 L960.999,421.577 ZM1043.894,477.938 L1042.963,476.732 L1057.237,463.225 L1071.511,476.732 L1070.579,477.938 L1057.237,465.314 L1043.894,477.938 ZM1236.368,477.938 L1235.437,476.732 L1249.711,463.225 L1263.982,476.732 L1263.053,477.937 L1249.711,465.314 L1236.368,477.938 ZM1442.182,465.314 L1428.839,477.937 L1427.910,476.732 L1442.182,463.225 L1456.456,476.732 L1455.525,477.938 L1442.182,465.314 ZM1442.182,431.672 L1413.817,458.510 L1412.885,457.303 L1442.182,429.584 L1471.482,457.303 L1470.550,458.510 L1442.182,431.672 ZM1442.182,398.030 L1398.794,439.082 L1397.862,437.875 L1442.182,395.943 L1486.504,437.875 L1485.573,439.082 L1442.182,398.030 ZM1442.182,364.389 L1381.757,421.559 L1382.503,422.520 L1345.946,387.936 L1309.393,422.519 L1315.467,414.660 L1345.922,385.871 L1345.936,385.886 L1345.960,385.861 L1376.568,414.818 L1380.825,420.352 L1442.182,362.301 L1501.530,418.450 L1500.598,419.655 L1442.182,364.389 ZM1442.182,330.748 L1368.746,400.227 L1367.814,399.021 L1442.182,328.659 L1516.553,399.021 L1515.621,400.227 L1442.182,330.748 ZM1345.936,271.533 L1345.960,271.509 L1390.255,313.416 L1389.324,314.622 L1345.946,273.582 L1302.569,314.621 L1301.638,313.416 L1345.922,271.518 L1345.936,271.533 ZM1317.592,334.049 L1316.660,332.844 L1345.922,305.159 L1345.936,305.172 L1345.960,305.149 L1375.233,332.844 L1374.301,334.049 L1345.946,307.224 L1317.592,334.049 ZM1345.946,340.866 L1332.617,353.477 L1331.686,352.271 L1345.920,338.803 L1345.936,338.818 L1345.960,338.792 L1360.210,352.271 L1359.278,353.477 L1345.946,340.866 ZM1339.104,379.591 L1338.170,380.799 L1249.711,297.106 L1161.249,380.799 L1160.318,379.593 L1249.711,295.017 L1339.104,379.591 ZM1197.782,313.416 L1196.850,314.622 L1153.472,273.582 L1110.095,314.621 L1109.164,313.416 L1153.472,271.494 L1197.782,313.416 ZM1146.630,379.593 L1145.699,380.799 L1057.237,297.106 L968.775,380.799 L967.843,379.593 L1057.237,295.017 L1146.630,379.593 ZM1005.308,313.416 L1004.378,314.621 L960.999,273.582 L917.622,314.621 L916.690,313.416 L960.999,271.494 L1005.308,313.416 ZM954.157,379.593 L953.225,380.799 L864.763,297.106 L776.301,380.799 L775.370,379.593 L864.763,295.017 L954.157,379.593 ZM812.836,313.416 L811.905,314.622 L768.528,273.582 L725.148,314.621 L724.216,313.416 L768.525,271.494 L812.836,313.416 ZM761.683,379.593 L760.751,380.799 L672.289,297.106 L583.828,380.799 L582.896,379.593 L672.289,295.017 L761.683,379.593 ZM531.742,313.416 L576.054,271.494 L620.362,313.416 L619.431,314.622 L576.054,273.582 L532.674,314.621 L531.742,313.416 ZM546.767,332.844 L576.054,305.135 L605.340,332.843 L604.405,334.050 L576.054,307.224 L547.699,334.049 L546.767,332.844 ZM561.790,352.271 L576.054,338.777 L590.315,352.271 L589.383,353.477 L576.054,340.866 L562.722,353.477 L561.790,352.271 ZM658.947,477.938 L658.015,476.732 L672.289,463.225 L686.563,476.732 L685.632,477.938 L672.289,465.314 L658.947,477.938 ZM701.586,457.303 L700.655,458.510 L672.289,431.672 L643.924,458.510 L642.992,457.303 L672.289,429.584 L701.586,457.303 ZM627.967,437.875 L672.289,395.943 L716.612,437.875 L715.680,439.082 L672.289,398.030 L628.899,439.082 L627.967,437.875 ZM864.763,465.314 L851.421,477.938 L850.489,476.732 L864.763,463.225 L879.037,476.732 L878.106,477.938 L864.763,465.314 ZM864.763,431.672 L836.398,458.510 L835.466,457.303 L864.763,429.584 L894.060,457.303 L893.128,458.510 L864.763,431.672 ZM864.763,398.030 L821.372,439.082 L820.441,437.875 L864.763,395.943 L909.086,437.875 L908.154,439.082 L864.763,398.030 ZM598.853,400.227 L597.921,399.021 L672.289,328.659 L746.660,399.020 L745.726,400.227 L672.289,330.748 L598.853,400.227 ZM739.241,332.844 L768.528,305.135 L797.811,332.844 L796.879,334.049 L768.528,307.224 L740.173,334.049 L739.241,332.844 ZM768.528,340.866 L755.196,353.477 L754.264,352.271 L768.525,338.777 L782.788,352.271 L781.857,353.477 L768.528,340.866 ZM864.763,364.389 L804.338,421.557 L805.090,422.527 L768.528,387.936 L731.963,422.528 L737.981,414.745 L768.525,385.847 L799.149,414.818 L800.644,416.778 L803.407,420.351 L864.763,362.301 L924.108,418.449 L923.176,419.654 L864.763,364.389 ZM791.324,400.227 L790.393,399.021 L864.763,328.659 L939.134,399.020 L938.199,400.227 L864.763,330.748 L791.324,400.227 ZM932.644,334.047 L931.715,332.844 L961.001,305.135 L990.285,332.844 L989.353,334.049 L960.999,307.224 L932.644,334.047 ZM960.999,340.866 L947.670,353.477 L946.738,352.271 L961.001,338.777 L975.262,352.271 L974.330,353.477 L960.999,340.866 ZM983.798,400.227 L982.866,399.021 L1057.237,328.659 L1131.605,399.021 L1130.673,400.227 L1057.237,330.748 L983.798,400.227 ZM1125.118,334.049 L1124.186,332.844 L1153.472,305.135 L1182.759,332.844 L1181.827,334.049 L1153.472,307.224 L1125.118,334.049 ZM1153.472,340.866 L1140.144,353.477 L1139.212,352.271 L1153.472,338.777 L1167.736,352.271 L1166.804,353.477 L1153.472,340.866 ZM1176.272,400.227 L1175.340,399.021 L1249.711,328.659 L1324.079,399.021 L1323.147,400.227 L1249.711,330.748 L1176.272,400.227 ZM1279.008,457.303 L1278.076,458.510 L1249.711,431.672 L1221.343,458.510 L1220.411,457.303 L1249.711,429.584 L1279.008,457.303 ZM1205.389,437.875 L1249.711,395.943 L1294.031,437.875 L1293.099,439.082 L1249.711,398.030 L1206.320,439.082 L1205.389,437.875 ZM1153.472,387.936 L1116.919,422.519 L1120.901,417.366 L1122.993,414.660 L1153.472,385.847 L1184.097,414.818 L1185.589,416.778 L1188.354,420.351 L1249.711,362.301 L1309.056,418.450 L1308.124,419.654 L1249.711,364.389 L1189.283,421.559 L1190.029,422.520 L1153.472,387.936 ZM1086.534,457.303 L1085.602,458.510 L1057.237,431.672 L1028.872,458.510 L1027.937,457.302 L1057.237,429.584 L1086.534,457.303 ZM1012.915,437.875 L1057.237,395.943 L1101.559,437.877 L1100.628,439.082 L1057.237,398.030 L1013.846,439.082 L1012.915,437.875 ZM960.999,387.936 L924.439,422.525 L928.427,417.366 L930.520,414.660 L960.999,385.847 L991.623,414.818 L993.118,416.778 L995.880,420.351 L1057.237,362.301 L1116.582,418.449 L1115.650,419.654 L1057.237,364.389 L996.812,421.557 L997.563,422.529 L960.999,387.936 ZM841.953,524.685 L768.528,455.219 L695.099,524.686 L694.168,523.481 L768.525,453.130 L842.882,523.481 L841.953,524.685 ZM679.145,504.054 L768.525,419.488 L857.907,504.054 L856.976,505.260 L768.528,421.577 L680.077,505.260 L679.145,504.054 ZM649.479,524.686 L576.054,455.219 L502.626,524.686 L501.694,523.481 L576.051,453.130 L650.411,523.481 L649.479,524.686 ZM665.434,504.054 L664.502,505.260 L576.054,421.577 L487.603,505.260 L486.671,504.054 L576.054,419.488 L665.434,504.054 ZM435.493,437.875 L479.815,395.943 L524.138,437.875 L523.206,439.082 L479.815,398.030 L436.425,439.082 L435.493,437.875 ZM494.090,476.732 L493.158,477.938 L479.815,465.314 L466.473,477.938 L465.541,476.732 L479.815,463.225 L494.090,476.732 ZM450.518,457.303 L479.815,429.584 L509.112,457.303 L508.183,458.508 L479.815,431.672 L451.450,458.510 L450.518,457.303 ZM406.378,400.227 L405.446,399.021 L479.815,328.659 L554.186,399.020 L553.251,400.227 L479.815,330.748 L406.378,400.227 ZM606.675,414.818 L608.167,416.778 L610.933,420.351 L672.289,362.301 L731.634,418.449 L730.703,419.654 L672.289,364.389 L611.864,421.557 L612.615,422.527 L576.054,387.936 L539.489,422.527 L545.575,414.661 L576.051,385.847 L606.675,414.818 ZM1442.182,297.106 L1353.723,380.799 L1352.789,379.591 L1442.182,295.017 L1531.578,379.591 L1530.644,380.799 L1442.182,297.106 ZM1538.420,340.866 L1525.089,353.476 L1524.160,352.271 L1538.396,338.801 L1538.410,338.816 L1538.434,338.792 L1552.684,352.271 L1551.752,353.477 L1538.420,340.866 ZM1495.043,314.621 L1494.111,313.416 L1538.396,271.518 L1538.410,271.533 L1538.434,271.509 L1582.729,313.416 L1581.798,314.622 L1538.420,273.582 L1495.043,314.621 ZM1538.420,307.224 L1510.066,334.049 L1509.134,332.844 L1538.396,305.159 L1538.410,305.172 L1538.434,305.149 L1567.707,332.844 L1566.775,334.049 L1538.420,307.224 ZM1345.960,453.145 L1420.303,523.481 L1419.372,524.686 L1345.946,455.219 L1272.521,524.686 L1271.589,523.481 L1345.922,453.154 L1345.936,453.169 L1345.960,453.145 ZM1256.564,504.054 L1345.922,419.513 L1345.936,419.527 L1345.960,419.503 L1435.329,504.054 L1434.397,505.260 L1345.946,421.577 L1257.495,505.260 L1256.564,504.054 ZM1227.830,523.481 L1226.898,524.686 L1153.472,455.219 L1080.047,524.686 L1079.115,523.481 L1153.472,453.130 L1227.830,523.481 ZM1064.090,504.052 L1153.472,419.488 L1242.855,504.054 L1241.924,505.260 L1153.472,421.577 L1065.024,505.260 L1064.090,504.052 ZM990.285,581.764 L989.353,582.970 L960.999,556.144 L932.644,582.969 L931.715,581.764 L961.001,554.056 L990.285,581.764 ZM916.690,562.336 L960.999,520.414 L1005.308,562.336 L1004.378,563.541 L960.999,522.503 L917.622,563.542 L916.690,562.336 ZM829.082,545.831 L834.271,539.119 L864.763,510.295 L895.396,539.277 L899.656,544.811 L960.999,486.772 L1020.333,542.908 L1019.401,544.114 L961.001,488.861 L900.587,546.016 L901.336,546.983 L864.763,512.383 L828.188,546.986 L828.939,546.016 L827.267,544.434 L829.082,545.831 ZM797.811,581.764 L796.879,582.970 L768.528,556.144 L740.173,582.970 L739.241,581.764 L768.528,554.056 L797.811,581.764 ZM724.216,562.336 L768.525,520.414 L812.836,562.336 L811.905,563.542 L768.528,522.503 L725.148,563.542 L724.216,562.336 ZM636.608,545.831 L641.797,539.119 L672.289,510.295 L702.922,539.277 L707.182,544.811 L768.525,486.772 L827.859,542.908 L826.928,544.114 L768.528,488.861 L708.113,546.016 L708.862,546.983 L672.289,512.383 L635.714,546.986 L636.465,546.016 L634.793,544.434 L636.608,545.831 ZM605.340,581.763 L604.405,582.970 L576.054,556.144 L547.699,582.970 L546.767,581.764 L576.054,554.056 L605.340,581.763 ZM531.742,562.336 L576.054,520.414 L620.362,562.336 L619.431,563.542 L576.054,522.503 L532.674,563.542 L531.742,562.336 ZM444.134,545.832 L449.325,539.120 L479.815,510.295 L510.448,539.277 L514.708,544.811 L576.054,486.772 L635.385,542.908 L634.454,544.114 L576.054,488.861 L515.639,546.016 L516.388,546.982 L479.815,512.383 L443.240,546.987 L443.991,546.016 L442.319,544.434 L444.134,545.832 ZM383.651,554.124 L412.866,581.764 L411.933,582.970 L383.580,556.144 L355.225,582.970 L354.294,581.764 L383.554,554.080 L383.626,554.151 L383.651,554.124 ZM339.269,562.336 L383.553,520.439 L383.626,520.512 L383.652,520.483 L427.889,562.336 L426.957,563.542 L383.580,522.503 L340.201,563.542 L339.269,562.336 ZM117.679,524.686 L116.747,523.481 L191.106,453.130 L265.463,523.481 L264.531,524.686 L191.106,455.219 L117.679,524.686 ZM317.974,539.277 L322.234,544.811 L383.580,486.772 L442.911,542.908 L441.980,544.114 L383.580,488.861 L323.166,546.016 L323.909,546.977 L287.343,512.383 L250.770,546.985 L251.519,546.016 L249.849,544.437 L251.662,545.832 L256.853,539.120 L287.343,510.295 L317.974,539.277 ZM376.736,379.593 L375.803,380.799 L287.343,297.106 L198.881,380.799 L197.950,379.593 L287.343,295.017 L376.736,379.593 ZM146.796,313.416 L191.106,271.494 L235.415,313.416 L234.483,314.622 L191.106,273.582 L147.727,314.621 L146.796,313.416 ZM205.368,352.271 L204.436,353.477 L191.106,340.866 L177.776,353.477 L176.844,352.271 L191.106,338.777 L205.368,352.271 ZM161.820,332.844 L191.106,305.135 L220.392,332.843 L219.459,334.050 L191.106,307.224 L162.752,334.049 L161.820,332.844 ZM310.153,275.766 L309.221,274.561 L383.579,204.210 L457.937,274.561 L457.005,275.766 L383.580,206.299 L310.153,275.766 ZM514.708,295.892 L576.054,237.852 L635.385,293.990 L634.454,295.194 L576.054,239.941 L515.639,297.096 L516.388,298.063 L479.815,263.464 L443.240,298.067 L443.991,297.096 L442.316,295.513 L444.134,296.912 L449.325,290.200 L479.815,261.375 L510.448,290.357 L514.708,295.892 ZM451.450,209.589 L450.518,208.383 L479.815,180.664 L509.112,208.383 L508.183,209.588 L479.815,182.752 L451.450,209.589 ZM479.815,216.394 L466.473,229.017 L465.541,227.812 L479.815,214.305 L494.090,227.812 L493.158,229.017 L479.815,216.394 ZM707.182,295.892 L768.525,237.852 L827.859,293.990 L826.928,295.194 L768.528,239.941 L708.113,297.096 L708.862,298.063 L672.289,263.464 L635.714,298.067 L636.465,297.096 L634.790,295.511 L636.608,296.911 L641.797,290.199 L672.289,261.375 L702.922,290.357 L707.182,295.892 ZM643.924,209.589 L642.992,208.383 L672.289,180.664 L701.586,208.383 L700.655,209.589 L672.289,182.752 L643.924,209.589 ZM672.289,216.394 L658.947,229.017 L658.015,227.812 L672.289,214.305 L686.563,227.812 L685.632,229.017 L672.289,216.394 ZM899.656,295.892 L960.999,237.852 L1020.333,293.990 L1019.401,295.194 L961.001,239.941 L900.587,297.096 L901.336,298.063 L864.763,263.464 L828.188,298.067 L828.939,297.096 L827.264,295.511 L829.082,296.911 L834.271,290.199 L864.763,261.375 L895.396,290.357 L899.656,295.892 ZM836.398,209.589 L835.466,208.383 L864.763,180.664 L894.060,208.383 L893.128,209.589 L864.763,182.752 L836.398,209.589 ZM864.763,216.394 L851.421,229.017 L850.489,227.812 L864.763,214.305 L879.037,227.812 L878.106,229.017 L864.763,216.394 ZM1028.872,209.589 L1027.937,208.382 L1057.237,180.664 L1086.534,208.383 L1085.602,209.589 L1057.237,182.752 L1028.872,209.589 ZM1057.237,216.394 L1043.894,229.017 L1042.963,227.812 L1057.237,214.305 L1071.511,227.812 L1070.579,229.017 L1057.237,216.394 ZM1080.047,275.766 L1079.115,274.561 L1153.472,204.210 L1227.830,274.561 L1226.898,275.766 L1153.472,206.299 L1080.047,275.766 ZM1221.343,209.589 L1220.411,208.383 L1249.711,180.664 L1279.008,208.383 L1278.076,209.589 L1249.711,182.752 L1221.343,209.589 ZM1249.711,216.394 L1236.368,229.017 L1235.437,227.812 L1249.711,214.305 L1263.982,227.812 L1263.053,229.016 L1249.711,216.394 ZM1272.521,275.766 L1271.589,274.561 L1345.922,204.234 L1345.936,204.249 L1345.960,204.225 L1420.303,274.561 L1419.372,275.766 L1345.946,206.299 L1272.521,275.766 ZM1413.817,209.589 L1412.885,208.383 L1442.182,180.664 L1471.482,208.383 L1470.550,209.589 L1442.182,182.752 L1413.817,209.589 ZM1442.182,216.394 L1428.839,229.016 L1427.910,227.812 L1442.182,214.305 L1456.456,227.812 L1455.525,229.017 L1442.182,216.394 ZM1464.992,275.765 L1464.063,274.561 L1538.396,204.234 L1538.410,204.249 L1538.434,204.225 L1612.778,274.561 L1611.846,275.766 L1538.420,206.299 L1464.992,275.765 ZM1538.420,239.941 L1478.006,297.096 L1478.755,298.063 L1442.182,263.464 L1405.615,298.059 L1406.361,297.096 L1345.946,239.941 L1285.532,297.096 L1286.273,298.054 L1249.711,263.464 L1213.135,298.069 L1213.887,297.096 L1153.472,239.941 L1093.061,297.096 L1093.810,298.063 L1057.237,263.464 L1020.662,298.069 L1021.413,297.096 L1019.735,295.510 L1021.555,296.911 L1026.745,290.199 L1057.237,261.375 L1087.869,290.357 L1092.127,295.892 L1153.472,237.852 L1214.819,295.892 L1219.218,290.199 L1249.711,261.375 L1280.343,290.357 L1284.601,295.892 L1345.922,237.876 L1345.936,237.891 L1345.960,237.867 L1407.292,295.892 L1411.692,290.199 L1442.182,261.375 L1472.817,290.357 L1477.074,295.892 L1538.396,237.876 L1538.410,237.891 L1538.434,237.867 L1597.752,293.990 L1596.823,295.193 L1538.420,239.941 ZM1634.656,297.106 L1546.194,380.799 L1545.263,379.593 L1634.656,295.017 L1724.049,379.593 L1723.118,380.799 L1634.656,297.106 ZM1730.894,340.866 L1717.563,353.477 L1716.631,352.271 L1730.870,338.801 L1730.884,338.816 L1730.908,338.792 L1745.155,352.271 L1744.223,353.477 L1730.894,340.866 ZM1687.517,314.621 L1686.583,313.415 L1730.870,271.518 L1730.884,271.534 L1730.910,271.510 L1775.203,313.416 L1774.271,314.622 L1730.894,273.582 L1687.517,314.621 ZM1730.894,307.224 L1702.540,334.049 L1701.608,332.844 L1730.870,305.159 L1730.884,305.172 L1730.908,305.149 L1760.180,332.843 L1759.246,334.049 L1730.894,307.224 ZM1730.894,589.786 L1717.563,602.397 L1716.631,601.193 L1730.870,587.721 L1730.884,587.736 L1730.908,587.712 L1745.155,601.191 L1744.223,602.397 L1730.894,589.786 ZM1687.517,563.542 L1686.583,562.335 L1730.811,520.494 L1730.884,520.579 L1730.970,520.485 L1775.203,562.336 L1774.271,563.542 L1730.894,522.503 L1687.517,563.542 ZM1730.894,556.144 L1702.540,582.970 L1701.608,581.764 L1730.811,554.135 L1730.884,554.217 L1730.967,554.125 L1760.180,581.763 L1759.249,582.969 L1730.894,556.144 ZM1709.026,647.941 L1708.095,649.147 L1634.656,579.668 L1561.220,649.147 L1560.288,647.941 L1634.656,577.579 L1709.026,647.941 ZM1545.263,628.513 L1634.656,543.937 L1724.049,628.513 L1723.118,629.719 L1634.656,546.026 L1546.194,629.719 L1545.263,628.513 ZM1516.553,647.941 L1515.621,649.147 L1442.182,579.668 L1368.746,649.147 L1367.814,647.941 L1442.182,577.579 L1516.553,647.941 ZM1352.789,628.512 L1442.182,543.937 L1531.578,628.512 L1530.644,629.719 L1442.182,546.026 L1353.723,629.719 L1352.789,628.512 ZM1324.079,647.941 L1323.147,649.147 L1249.711,579.668 L1176.272,649.147 L1175.340,647.941 L1249.711,577.579 L1324.079,647.941 ZM1160.318,628.513 L1249.711,543.937 L1339.104,628.512 L1338.170,629.719 L1249.711,546.026 L1161.249,629.719 L1160.318,628.513 ZM1131.605,647.941 L1130.673,649.147 L1057.237,579.668 L983.798,649.147 L982.866,647.941 L1057.237,577.579 L1131.605,647.941 ZM967.843,628.513 L1057.237,543.937 L1146.630,628.513 L1145.699,629.719 L1057.237,546.026 L968.775,629.719 L967.843,628.513 ZM939.134,647.940 L938.199,649.147 L864.763,579.668 L791.324,649.147 L790.393,647.941 L864.763,577.579 L939.134,647.940 ZM775.370,628.513 L864.763,543.937 L954.157,628.513 L953.225,629.719 L864.763,546.026 L776.301,629.719 L775.370,628.513 ZM746.660,647.940 L745.726,649.147 L672.289,579.668 L598.853,649.147 L597.921,647.941 L672.289,577.579 L746.660,647.940 ZM582.896,628.513 L672.289,543.937 L761.683,628.513 L760.751,629.719 L672.289,546.026 L583.828,629.719 L582.896,628.513 ZM554.186,647.940 L553.251,649.147 L479.815,579.668 L406.378,649.147 L405.446,647.941 L479.815,577.579 L554.186,647.940 ZM390.422,628.513 L479.815,543.937 L569.209,628.513 L568.277,629.719 L479.815,546.026 L391.355,629.719 L390.422,628.513 ZM361.712,647.941 L360.779,649.147 L287.343,579.668 L213.905,649.147 L212.974,647.941 L287.343,577.579 L361.712,647.941 ZM197.950,628.513 L287.343,543.937 L376.736,628.513 L375.803,629.719 L287.343,546.026 L198.881,629.719 L197.950,628.513 ZM169.238,647.941 L168.307,649.147 L94.869,579.668 L21.431,649.147 L20.500,647.941 L94.869,577.579 L169.238,647.941 ZM5.476,628.513 L94.869,543.937 L184.262,628.513 L183.329,629.719 L94.869,546.026 L6.407,629.719 L5.476,628.513 ZM1730.894,172.657 L1642.443,256.339 L1641.512,255.134 L1730.870,170.592 L1730.884,170.608 L1730.910,170.584 L1820.274,255.134 L1819.345,256.338 L1730.894,172.657 ZM1827.130,216.394 L1813.787,229.017 L1812.856,227.812 L1827.130,214.305 L1841.404,227.812 L1840.472,229.017 L1827.130,216.394 ZM1827.130,182.752 L1798.765,209.589 L1797.833,208.383 L1827.130,180.664 L1856.427,208.383 L1855.498,209.588 L1827.130,182.752 ZM1827.130,149.110 L1783.739,190.161 L1782.807,188.955 L1827.130,147.022 L1871.452,188.955 L1870.521,190.161 L1827.130,149.110 ZM1827.130,115.469 L1766.705,172.637 L1767.459,173.610 L1730.894,139.015 L1694.324,173.615 L1696.912,170.271 L1700.415,165.741 L1730.870,136.951 L1730.884,136.965 L1730.908,136.941 L1761.516,165.898 L1765.773,171.432 L1827.130,113.381 L1886.475,169.529 L1885.543,170.734 L1827.130,115.469 ZM1827.130,81.828 L1753.693,151.307 L1752.762,150.101 L1827.130,79.739 L1901.500,150.101 L1900.569,151.307 L1827.130,81.828 ZM1916.523,130.673 L1915.592,131.879 L1827.130,48.186 L1738.668,131.879 L1737.736,130.673 L1827.130,46.097 L1916.523,130.673 ZM1730.884,56.376 L1730.967,56.285 L1760.180,83.922 L1759.249,85.129 L1730.894,58.304 L1702.540,85.130 L1701.608,83.924 L1730.811,56.294 L1730.884,56.376 ZM1730.870,89.881 L1730.884,89.896 L1730.908,89.872 L1745.155,103.351 L1744.223,104.557 L1730.894,91.946 L1717.563,104.557 L1716.631,103.352 L1730.870,89.881 ZM1709.026,150.101 L1708.095,151.307 L1634.656,81.828 L1561.220,151.307 L1560.288,150.101 L1634.656,79.739 L1709.026,150.101 ZM1724.049,130.673 L1723.118,131.879 L1634.656,48.186 L1546.194,131.879 L1545.263,130.673 L1634.656,46.097 L1724.049,130.673 ZM1538.410,56.376 L1538.493,56.285 L1567.707,83.924 L1566.775,85.130 L1538.420,58.304 L1510.066,85.130 L1509.134,83.924 L1538.337,56.294 L1538.410,56.376 ZM1538.396,89.881 L1538.410,89.896 L1538.434,89.872 L1552.684,103.351 L1551.752,104.557 L1538.420,91.946 L1525.089,104.555 L1524.160,103.352 L1538.396,89.881 ZM1516.553,150.101 L1515.621,151.307 L1442.182,81.828 L1368.746,151.307 L1367.814,150.101 L1442.182,79.739 L1516.553,150.101 ZM1531.578,130.671 L1530.644,131.879 L1442.182,48.186 L1353.723,131.879 L1352.789,130.671 L1442.182,46.097 L1531.578,130.671 ZM1345.936,56.376 L1346.019,56.285 L1375.233,83.924 L1374.301,85.130 L1345.946,58.304 L1317.592,85.130 L1316.660,83.924 L1345.863,56.294 L1345.936,56.376 ZM1345.920,89.883 L1345.936,89.897 L1345.960,89.872 L1360.210,103.351 L1359.278,104.557 L1345.946,91.946 L1332.617,104.557 L1331.686,103.352 L1345.920,89.883 ZM1324.079,150.101 L1323.147,151.307 L1249.711,81.828 L1176.272,151.307 L1175.340,150.101 L1249.711,79.739 L1324.079,150.101 ZM1339.104,130.671 L1338.170,131.879 L1249.711,48.186 L1161.249,131.879 L1160.318,130.673 L1249.711,46.097 L1339.104,130.671 ZM1182.759,83.924 L1181.827,85.130 L1153.472,58.304 L1125.118,85.130 L1124.186,83.924 L1153.472,56.215 L1182.759,83.924 ZM1153.475,89.857 L1167.736,103.351 L1166.804,104.557 L1153.472,91.946 L1140.144,104.557 L1139.212,103.352 L1153.475,89.857 ZM1131.605,150.101 L1130.673,151.307 L1057.237,81.828 L983.798,151.307 L982.866,150.101 L1057.237,79.739 L1131.605,150.101 ZM1146.630,130.673 L1145.699,131.879 L1057.237,48.186 L968.775,131.879 L967.843,130.673 L1057.237,46.097 L1146.630,130.673 ZM990.285,83.924 L989.353,85.130 L960.999,58.304 L932.644,85.129 L931.715,83.924 L961.001,56.215 L990.285,83.924 ZM961.001,89.857 L975.262,103.351 L974.330,104.557 L960.999,91.946 L947.670,104.557 L946.738,103.352 L961.001,89.857 ZM939.134,150.099 L938.199,151.307 L864.763,81.828 L791.324,151.307 L790.393,150.101 L864.763,79.739 L939.134,150.099 ZM954.157,130.673 L953.225,131.879 L864.763,48.186 L776.301,131.879 L775.370,130.673 L864.763,46.097 L954.157,130.673 ZM797.811,83.924 L796.879,85.130 L768.528,58.304 L740.173,85.130 L739.241,83.924 L768.528,56.215 L797.811,83.924 ZM768.528,89.857 L782.788,103.351 L781.857,104.557 L768.528,91.946 L755.196,104.557 L754.264,103.352 L768.528,89.857 ZM746.660,150.099 L745.726,151.307 L672.289,81.828 L598.853,151.307 L597.921,150.101 L672.289,79.739 L746.660,150.099 ZM761.683,130.673 L760.751,131.879 L672.289,48.186 L583.828,131.879 L582.896,130.673 L672.289,46.097 L761.683,130.673 ZM605.340,83.922 L604.405,85.130 L576.054,58.304 L547.699,85.130 L546.767,83.924 L576.054,56.215 L605.340,83.922 ZM576.054,89.857 L590.315,103.351 L589.383,104.557 L576.054,91.946 L562.722,104.557 L561.790,103.352 L576.054,89.857 ZM554.186,150.099 L553.251,151.307 L479.815,81.828 L406.378,151.307 L405.446,150.101 L479.815,79.739 L554.186,150.099 ZM569.209,130.673 L568.277,131.879 L479.815,48.186 L391.355,131.879 L390.422,130.673 L479.815,46.097 L569.209,130.673 ZM383.626,56.310 L383.651,56.283 L412.866,83.924 L411.933,85.130 L383.580,58.304 L355.225,85.130 L354.294,83.924 L383.554,56.239 L383.626,56.310 ZM383.580,89.857 L397.842,103.351 L396.910,104.557 L383.580,91.946 L370.248,104.557 L369.318,103.352 L383.580,89.857 ZM361.712,150.101 L360.779,151.307 L287.343,81.828 L213.905,151.307 L212.974,150.101 L287.343,79.739 L361.712,150.101 ZM376.736,130.673 L375.803,131.879 L287.343,48.186 L198.881,131.879 L197.950,130.673 L287.343,46.097 L376.736,130.673 ZM191.037,56.310 L191.121,56.229 L220.392,83.924 L219.459,85.130 L191.106,58.304 L162.752,85.130 L161.820,83.924 L191.023,56.294 L191.037,56.310 ZM191.106,89.857 L205.368,103.351 L204.436,104.557 L191.106,91.946 L177.776,104.557 L176.844,103.352 L191.106,89.857 ZM169.238,150.101 L168.307,151.307 L94.869,81.828 L21.431,151.307 L20.500,150.101 L94.869,79.739 L169.238,150.101 ZM5.476,130.673 L94.869,46.097 L184.262,130.673 L183.329,131.879 L94.869,48.186 L6.407,131.879 L5.476,130.673 ZM1841.404,725.652 L1840.472,726.858 L1827.130,714.234 L1813.787,726.858 L1812.856,725.652 L1827.130,712.146 L1841.404,725.652 Z"/>
</svg>