<svg 
 width="16px" height="16px">
<path fill-rule="evenodd"  fill="rgb(114, 114, 114)"
 d="M7.999,-0.001 L0.228,6.857 C-0.040,7.095 -0.069,7.508 0.164,7.782 L0.164,7.782 C0.398,8.055 0.805,8.084 1.074,7.847 L1.360,7.594 L1.360,14.034 C1.360,15.119 2.226,15.999 3.294,15.999 L6.903,15.999 L6.903,10.725 C6.903,10.093 7.408,9.579 8.031,9.579 L8.031,9.579 C8.654,9.579 9.159,10.093 9.159,10.725 L9.159,15.999 L12.704,15.999 C13.772,15.999 14.638,15.119 14.638,14.034 L14.638,7.594 L14.924,7.847 C15.193,8.084 15.600,8.055 15.833,7.782 L15.833,7.782 C16.067,7.508 16.038,7.095 15.769,6.857 L7.999,-0.001 ZM13.349,14.034 C13.349,14.396 13.060,14.689 12.704,14.689 L10.448,14.689 L10.448,10.725 C10.448,9.369 9.366,8.269 8.031,8.269 L8.031,8.269 C6.696,8.269 5.614,9.369 5.614,10.725 L5.614,14.689 L3.294,14.689 C2.938,14.689 2.649,14.396 2.649,14.034 L2.649,6.456 L7.999,1.734 L13.349,6.456 L13.349,14.034 Z"/>
</svg>