<svg 
 xmlns="http://www.w3.org/2000/svg"
 xmlns:xlink="http://www.w3.org/1999/xlink"
 width="130px" height="130px">
<path fill-rule="evenodd"  opacity="0.2" fill="rgb(254, 62, 87)"
 d="M64.1000,-0.000 C100.898,-0.000 129.1000,29.101 129.1000,64.1000 C129.1000,100.898 100.898,129.1000 64.1000,129.1000 C29.101,129.1000 -0.000,100.898 -0.000,64.1000 C-0.000,29.101 29.101,-0.000 64.1000,-0.000 Z"/>
<path fill-rule="evenodd"  opacity="0.6" fill="rgb(254, 62, 87)"
 d="M64.1000,9.1000 C95.376,9.1000 119.1000,34.624 119.1000,64.1000 C119.1000,95.376 95.376,119.1000 64.1000,119.1000 C34.624,119.1000 9.1000,95.376 9.1000,64.1000 C9.1000,34.624 34.624,9.1000 64.1000,9.1000 Z"/>
<path fill-rule="evenodd"  fill="rgb(254, 62, 87)"
 d="M64.1000,19.1000 C89.853,19.1000 109.1000,40.147 109.1000,64.1000 C109.1000,89.853 89.853,109.1000 64.1000,109.1000 C40.147,109.1000 19.1000,89.853 19.1000,64.1000 C19.1000,40.147 40.147,19.1000 64.1000,19.1000 Z"/>
<path fill-rule="evenodd"  fill="rgb(255, 255, 255)"
 d="M71.816,63.142 L59.992,55.536 C59.446,55.185 58.896,54.999 58.438,54.999 C57.554,54.999 57.007,55.666 57.007,56.782 L57.007,73.219 C57.007,74.334 57.554,74.999 58.436,74.999 C58.894,74.999 59.435,74.813 59.982,74.460 L71.812,66.855 C72.572,66.366 72.994,65.706 72.994,64.998 C72.994,64.291 72.577,63.631 71.816,63.142 "/>
</svg>