<?xml version="1.0" encoding="UTF-8"?>
<svg xmlns="http://www.w3.org/2000/svg" xmlns:xlink="http://www.w3.org/1999/xlink" width="18px" height="16px" viewBox="0 0 18 16" version="1.1">
<g id="surface1">
<path style=" stroke:none;fill-rule:nonzero;fill:#d8d8d8;fill-opacity:1;" d="M 8.996094 0 C 9.285156 0 9.546875 0.164062 9.671875 0.421875 L 11.816406 4.835938 L 16.601562 5.542969 C 16.882812 5.585938 17.117188 5.78125 17.207031 6.054688 C 17.292969 6.324219 17.222656 6.617188 17.023438 6.820312 L 13.550781 10.261719 L 14.367188 15.125 C 14.414062 15.40625 14.300781 15.691406 14.070312 15.859375 C 13.835938 16.027344 13.527344 16.046875 13.277344 15.914062 L 8.996094 13.625 L 4.71875 15.910156 C 4.464844 16.042969 4.160156 16.023438 3.929688 15.855469 C 3.695312 15.6875 3.578125 15.402344 3.625 15.121094 L 4.445312 10.257812 L 0.972656 6.820312 C 0.769531 6.617188 0.699219 6.320312 0.789062 6.054688 C 0.875 5.785156 1.109375 5.585938 1.390625 5.542969 L 6.179688 4.835938 L 8.320312 0.421875 C 8.449219 0.164062 8.710938 0 8.996094 0 Z M 8.996094 2.46875 L 7.355469 5.851562 C 7.246094 6.070312 7.039062 6.226562 6.789062 6.265625 L 3.09375 6.808594 L 5.777344 9.46875 C 5.949219 9.640625 6.03125 9.882812 5.992188 10.125 L 5.355469 13.867188 L 8.644531 12.109375 C 8.867188 11.992188 9.132812 11.992188 9.351562 12.109375 L 12.636719 13.867188 L 12.007812 10.128906 C 11.964844 9.886719 12.042969 9.644531 12.21875 9.472656 L 14.902344 6.8125 L 11.207031 6.265625 C 10.960938 6.226562 10.75 6.074219 10.640625 5.851562 Z M 8.996094 2.46875 "/>
</g>
</svg>
