<svg 
 xmlns="http://www.w3.org/2000/svg"
 xmlns:xlink="http://www.w3.org/1999/xlink"
 width="1627px" height="369px">
<defs>
<filter filterUnits="userSpaceOnUse" id="Filter_0" x="1561px" y="303px" width="66px" height="66px"  >
    <feOffset in="SourceAlpha" dx="0" dy="3" />
    <feGaussianBlur result="blurOut" stdDeviation="3.162" />
    <feFlood flood-color="rgb(254, 62, 87)" result="floodOut" />
    <feComposite operator="atop" in="floodOut" in2="blurOut" />
    <feComponentTransfer><feFuncA type="linear" slope="0.5"/></feComponentTransfer>
    <feMerge>
    <feMergeNode/>
    <feMergeNode in="SourceGraphic"/>
  </feMerge>
</filter>

</defs>
<g filter="url(#Filter_0)">
<path fill-rule="evenodd"  fill="rgb(254, 62, 87)"
 d="M1593.499,355.998 C1580.519,355.998 1569.998,345.475 1569.998,332.497 C1569.998,319.519 1580.519,308.1000 1593.499,308.1000 C1606.478,308.1000 1617.002,319.519 1617.002,332.497 C1617.002,345.475 1606.478,355.998 1593.499,355.998 ZM1593.499,313.802 C1583.173,313.802 1574.800,322.171 1574.800,332.497 C1574.800,342.826 1583.173,351.195 1593.499,351.195 C1603.828,351.195 1612.199,342.826 1612.199,332.497 C1612.199,322.171 1603.828,313.802 1593.499,313.802 ZM1593.481,338.104 C1590.384,338.094 1587.886,335.576 1587.894,332.480 C1587.905,329.383 1590.419,326.885 1593.517,326.894 C1596.613,326.903 1599.115,329.420 1599.106,332.517 C1599.096,335.611 1596.578,338.113 1593.481,338.104 Z"/>
</g>
<path fill-rule="evenodd"  fill="rgb(52, 195, 255)"
 d="M103.009,54.656 C101.814,54.656 100.846,53.691 100.846,52.499 C100.846,51.307 101.814,50.341 103.009,50.341 C104.199,50.341 105.169,51.307 105.169,52.499 C105.169,53.691 104.199,54.656 103.009,54.656 ZM95.805,61.848 C94.611,61.848 93.644,60.882 93.644,59.691 C93.644,58.499 94.611,57.533 95.805,57.533 C96.998,57.533 97.965,58.499 97.965,59.691 C97.965,60.882 96.998,61.848 95.805,61.848 ZM95.805,47.465 C94.611,47.465 93.644,46.499 93.644,45.306 C93.644,44.116 94.611,43.149 95.805,43.149 C96.998,43.149 97.965,44.116 97.965,45.306 C97.965,46.499 96.998,47.465 95.805,47.465 ZM88.602,69.040 C87.408,69.040 86.440,68.074 86.440,66.883 C86.440,65.691 87.408,64.725 88.602,64.725 C89.793,64.725 90.763,65.691 90.763,66.883 C90.763,68.074 89.793,69.040 88.602,69.040 ZM90.762,52.499 C90.762,53.691 89.793,54.656 88.601,54.656 C87.408,54.656 86.440,53.691 86.440,52.499 C86.440,51.307 87.408,50.341 88.601,50.341 C89.793,50.341 90.762,51.307 90.762,52.499 ZM88.602,40.272 C87.408,40.272 86.440,39.306 86.440,38.116 C86.440,36.923 87.408,35.958 88.602,35.958 C89.793,35.958 90.763,36.923 90.763,38.116 C90.763,39.306 89.793,40.272 88.602,40.272 ZM81.398,76.232 C80.204,76.232 79.237,75.266 79.237,74.074 C79.237,72.883 80.204,71.916 81.398,71.916 C82.591,71.916 83.559,72.883 83.559,74.074 C83.559,75.266 82.591,76.232 81.398,76.232 ZM81.398,61.848 C80.204,61.848 79.237,60.882 79.237,59.691 C79.237,58.499 80.204,57.533 81.398,57.533 C82.591,57.533 83.559,58.499 83.559,59.691 C83.559,60.882 82.591,61.848 81.398,61.848 ZM81.398,47.465 C80.204,47.465 79.237,46.499 79.237,45.306 C79.237,44.116 80.204,43.149 81.398,43.149 C82.591,43.149 83.559,44.116 83.559,45.306 C83.559,46.499 82.591,47.465 81.398,47.465 ZM81.398,33.081 C80.204,33.081 79.237,32.114 79.237,30.924 C79.237,29.731 80.204,28.765 81.398,28.765 C82.591,28.765 83.559,29.731 83.559,30.924 C83.559,32.114 82.591,33.081 81.398,33.081 ZM74.195,83.425 C73.002,83.425 72.034,82.458 72.034,81.266 C72.034,80.074 73.002,79.108 74.195,79.108 C75.387,79.108 76.355,80.074 76.355,81.266 C76.355,82.458 75.387,83.425 74.195,83.425 ZM74.195,69.040 C73.002,69.040 72.034,68.074 72.034,66.883 C72.034,65.691 73.002,64.725 74.195,64.725 C75.387,64.725 76.355,65.691 76.355,66.883 C76.355,68.074 75.387,69.040 74.195,69.040 ZM74.195,54.656 C73.002,54.656 72.034,53.691 72.034,52.499 C72.034,51.307 73.002,50.341 74.195,50.341 C75.387,50.341 76.355,51.307 76.355,52.499 C76.355,53.691 75.387,54.656 74.195,54.656 ZM74.195,40.272 C73.002,40.272 72.034,39.306 72.034,38.116 C72.034,36.923 73.002,35.958 74.195,35.958 C75.387,35.958 76.355,36.923 76.355,38.116 C76.355,39.306 75.387,40.272 74.195,40.272 ZM74.195,25.889 C73.002,25.889 72.034,24.923 72.034,23.731 C72.034,22.539 73.002,21.573 74.195,21.573 C75.387,21.573 76.355,22.539 76.355,23.731 C76.355,24.923 75.387,25.889 74.195,25.889 ZM66.992,90.616 C65.797,90.616 64.829,89.650 64.829,88.458 C64.829,87.266 65.797,86.301 66.992,86.301 C68.185,86.301 69.152,87.266 69.152,88.458 C69.152,89.650 68.185,90.616 66.992,90.616 ZM66.992,76.232 C65.797,76.232 64.829,75.266 64.829,74.074 C64.829,72.883 65.797,71.916 66.992,71.916 C68.185,71.916 69.152,72.883 69.152,74.074 C69.152,75.266 68.185,76.232 66.992,76.232 ZM66.992,61.848 C65.797,61.848 64.829,60.882 64.829,59.691 C64.829,58.499 65.797,57.533 66.992,57.533 C68.185,57.533 69.152,58.499 69.152,59.691 C69.152,60.882 68.185,61.848 66.992,61.848 ZM66.992,47.465 C65.797,47.465 64.829,46.499 64.829,45.306 C64.829,44.116 65.797,43.149 66.992,43.149 C68.185,43.149 69.152,44.116 69.152,45.306 C69.152,46.499 68.185,47.465 66.992,47.465 ZM66.992,33.081 C65.797,33.081 64.829,32.114 64.829,30.924 C64.829,29.731 65.797,28.765 66.992,28.765 C68.185,28.765 69.152,29.731 69.152,30.924 C69.152,32.114 68.185,33.081 66.992,33.081 ZM66.992,18.697 C65.797,18.697 64.829,17.731 64.829,16.539 C64.829,15.348 65.797,14.381 66.992,14.381 C68.185,14.381 69.152,15.348 69.152,16.539 C69.152,17.731 68.185,18.697 66.992,18.697 ZM59.788,83.425 C58.593,83.425 57.625,82.458 57.625,81.266 C57.625,80.074 58.593,79.108 59.788,79.108 C60.981,79.108 61.949,80.074 61.949,81.266 C61.949,82.458 60.981,83.425 59.788,83.425 ZM59.788,64.725 C60.979,64.725 61.948,65.691 61.948,66.883 C61.948,68.074 60.979,69.040 59.788,69.040 C58.593,69.040 57.625,68.074 57.625,66.883 C57.625,65.691 58.593,64.725 59.788,64.725 ZM59.788,54.656 C58.593,54.656 57.625,53.691 57.625,52.499 C57.625,51.307 58.593,50.341 59.788,50.341 C60.981,50.341 61.949,51.307 61.949,52.499 C61.949,53.691 60.981,54.656 59.788,54.656 ZM59.788,35.958 C60.979,35.958 61.948,36.923 61.948,38.116 C61.948,39.306 60.979,40.272 59.788,40.272 C58.593,40.272 57.625,39.306 57.625,38.116 C57.625,36.923 58.593,35.958 59.788,35.958 ZM59.788,25.889 C58.593,25.889 57.625,24.923 57.625,23.731 C57.625,22.539 58.593,21.573 59.788,21.573 C60.981,21.573 61.949,22.539 61.949,23.731 C61.949,24.923 60.981,25.889 59.788,25.889 ZM59.788,11.505 C58.593,11.505 57.625,10.539 57.625,9.347 C57.625,8.155 58.593,7.190 59.788,7.190 C60.979,7.190 61.948,8.155 61.948,9.347 C61.948,10.539 60.979,11.505 59.788,11.505 ZM52.585,104.999 C52.585,104.999 52.585,104.999 52.584,104.999 C51.390,104.999 50.422,104.033 50.422,102.842 C50.422,101.650 51.390,100.684 52.584,100.684 C52.585,100.684 52.585,100.684 52.585,100.684 C53.777,100.684 54.746,101.650 54.746,102.842 C54.746,104.033 53.777,104.999 52.585,104.999 ZM52.584,86.301 C53.777,86.301 54.745,87.266 54.745,88.458 C54.745,89.650 53.777,90.616 52.584,90.616 C51.390,90.616 50.422,89.650 50.422,88.458 C50.422,87.266 51.390,86.301 52.584,86.301 ZM52.585,76.232 C52.585,76.232 52.585,76.232 52.584,76.232 C51.390,76.232 50.422,75.266 50.422,74.074 C50.422,72.883 51.390,71.916 52.584,71.916 C52.585,71.916 52.585,71.916 52.585,71.916 C53.777,71.916 54.746,72.883 54.746,74.074 C54.746,75.266 53.777,76.232 52.585,76.232 ZM52.584,57.533 C53.777,57.533 54.745,58.499 54.745,59.691 C54.745,60.882 53.777,61.848 52.584,61.848 C51.390,61.848 50.422,60.882 50.422,59.691 C50.422,58.499 51.390,57.533 52.584,57.533 ZM52.585,47.465 C52.585,47.465 52.585,47.465 52.584,47.465 C51.390,47.465 50.422,46.499 50.422,45.306 C50.422,44.116 51.390,43.149 52.584,43.149 C52.585,43.149 52.585,43.149 52.585,43.149 C53.777,43.149 54.746,44.116 54.746,45.306 C54.746,46.499 53.777,47.465 52.585,47.465 ZM52.584,28.765 C53.777,28.765 54.745,29.731 54.745,30.924 C54.745,32.114 53.777,33.081 52.584,33.081 C51.390,33.081 50.422,32.114 50.422,30.924 C50.422,29.731 51.390,28.765 52.584,28.765 ZM52.585,18.697 C52.585,18.697 52.585,18.697 52.584,18.697 C51.390,18.697 50.422,17.731 50.422,16.539 C50.422,15.348 51.390,14.381 52.584,14.381 C52.585,14.381 52.585,14.381 52.585,14.381 C53.777,14.381 54.746,15.348 54.746,16.539 C54.746,17.731 53.777,18.697 52.585,18.697 ZM52.584,4.313 C51.390,4.313 50.422,3.347 50.422,2.155 C50.422,0.964 51.390,-0.003 52.584,-0.003 C53.777,-0.003 54.745,0.964 54.745,2.155 C54.745,3.347 53.777,4.313 52.584,4.313 ZM45.380,97.807 C44.187,97.807 43.219,96.841 43.219,95.650 C43.219,94.458 44.187,93.493 45.380,93.493 C46.573,93.493 47.542,94.458 47.542,95.650 C47.542,96.841 46.573,97.807 45.380,97.807 ZM45.380,83.425 C44.187,83.425 43.219,82.458 43.219,81.266 C43.219,80.074 44.187,79.108 45.380,79.108 C46.573,79.108 47.542,80.074 47.542,81.266 C47.542,82.458 46.573,83.425 45.380,83.425 ZM45.380,69.040 C44.187,69.040 43.219,68.074 43.219,66.883 C43.219,65.691 44.187,64.725 45.380,64.725 C46.573,64.725 47.542,65.691 47.542,66.883 C47.542,68.074 46.573,69.040 45.380,69.040 ZM45.380,54.656 C44.187,54.656 43.219,53.691 43.219,52.499 C43.219,51.307 44.187,50.341 45.380,50.341 C46.573,50.341 47.542,51.307 47.542,52.499 C47.542,53.691 46.573,54.656 45.380,54.656 ZM45.380,40.272 C44.187,40.272 43.219,39.306 43.219,38.116 C43.219,36.923 44.187,35.958 45.380,35.958 C46.573,35.958 47.542,36.923 47.542,38.116 C47.542,39.306 46.573,40.272 45.380,40.272 ZM45.380,25.889 C44.187,25.889 43.219,24.923 43.219,23.731 C43.219,22.539 44.187,21.573 45.380,21.573 C46.573,21.573 47.542,22.539 47.542,23.731 C47.542,24.923 46.573,25.889 45.380,25.889 ZM45.380,11.505 C44.187,11.505 43.219,10.539 43.219,9.347 C43.219,8.155 44.187,7.190 45.380,7.190 C46.573,7.190 47.542,8.155 47.542,9.347 C47.542,10.539 46.573,11.505 45.380,11.505 ZM38.179,90.616 C38.178,90.616 38.178,90.616 38.178,90.616 C37.282,90.616 36.514,90.073 36.186,89.298 C36.077,89.040 36.017,88.756 36.017,88.458 C36.017,88.160 36.077,87.877 36.186,87.618 C36.514,86.844 37.282,86.301 38.178,86.301 C38.178,86.301 38.178,86.301 38.179,86.301 C39.073,86.301 39.840,86.844 40.167,87.618 C40.277,87.877 40.338,88.160 40.338,88.458 C40.338,88.756 40.277,89.040 40.167,89.298 C39.840,90.073 39.073,90.616 38.179,90.616 ZM38.179,76.232 C38.178,76.232 38.178,76.232 38.178,76.232 C37.282,76.232 36.514,75.689 36.186,74.915 C36.077,74.655 36.017,74.372 36.017,74.074 C36.017,73.777 36.077,73.493 36.186,73.234 C36.514,72.460 37.282,71.916 38.178,71.916 C38.178,71.916 38.178,71.916 38.179,71.916 C39.073,71.916 39.840,72.460 40.167,73.234 C40.277,73.493 40.338,73.777 40.338,74.074 C40.338,74.372 40.277,74.655 40.167,74.915 C39.840,75.689 39.073,76.232 38.179,76.232 ZM38.179,61.848 C38.178,61.848 38.178,61.848 38.178,61.848 C37.282,61.848 36.514,61.305 36.186,60.531 C36.077,60.272 36.017,59.988 36.017,59.691 C36.017,59.394 36.077,59.108 36.186,58.851 C36.514,58.077 37.282,57.533 38.178,57.533 C38.178,57.533 38.178,57.533 38.179,57.533 C39.073,57.533 39.840,58.077 40.167,58.851 C40.277,59.108 40.338,59.394 40.338,59.691 C40.338,59.988 40.277,60.272 40.167,60.531 C39.840,61.305 39.073,61.848 38.179,61.848 ZM38.179,47.465 C38.178,47.465 38.178,47.465 38.178,47.465 C37.282,47.465 36.514,46.921 36.186,46.146 C36.077,45.889 36.017,45.604 36.017,45.306 C36.017,45.009 36.077,44.725 36.186,44.467 C36.514,43.692 37.282,43.149 38.178,43.149 C38.178,43.149 38.178,43.149 38.179,43.149 C39.073,43.149 39.840,43.692 40.167,44.467 C40.277,44.725 40.338,45.009 40.338,45.306 C40.338,45.604 40.277,45.889 40.167,46.146 C39.840,46.921 39.073,47.465 38.179,47.465 ZM38.179,33.081 C38.178,33.081 38.178,33.081 38.178,33.081 C37.282,33.081 36.514,32.537 36.186,31.763 C36.077,31.504 36.017,31.220 36.017,30.924 C36.017,30.624 36.077,30.342 36.186,30.084 C36.514,29.309 37.282,28.765 38.178,28.765 C38.178,28.765 38.178,28.765 38.179,28.765 C39.073,28.765 39.840,29.309 40.167,30.084 C40.277,30.342 40.338,30.624 40.338,30.924 C40.338,31.220 40.277,31.504 40.167,31.763 C39.840,32.537 39.073,33.081 38.179,33.081 ZM38.179,18.697 C38.178,18.697 38.178,18.697 38.178,18.697 C37.282,18.697 36.514,18.153 36.186,17.379 C36.077,17.120 36.017,16.838 36.017,16.539 C36.017,16.241 36.077,15.958 36.186,15.699 C36.514,14.925 37.282,14.381 38.178,14.381 C38.178,14.381 38.178,14.381 38.179,14.381 C39.073,14.381 39.840,14.925 40.167,15.699 C40.277,15.958 40.338,16.241 40.338,16.539 C40.338,16.838 40.277,17.120 40.167,17.379 C39.840,18.153 39.073,18.697 38.179,18.697 ZM31.815,83.254 C31.556,83.364 31.273,83.425 30.975,83.425 L30.974,83.425 C30.079,83.425 29.311,82.881 28.983,82.105 C28.873,81.848 28.813,81.564 28.813,81.266 C28.813,80.969 28.873,80.684 28.983,80.426 C29.311,79.652 30.079,79.108 30.974,79.108 L30.975,79.108 C31.273,79.108 31.556,79.169 31.815,79.278 C32.590,79.605 33.135,80.372 33.135,81.266 C33.135,82.161 32.590,82.928 31.815,83.254 ZM30.975,69.040 C29.780,69.040 28.813,68.074 28.813,66.883 C28.813,65.691 29.780,64.725 30.975,64.725 C32.166,64.725 33.135,65.691 33.135,66.883 C33.135,68.074 32.166,69.040 30.975,69.040 ZM31.815,54.487 C31.556,54.596 31.273,54.656 30.975,54.656 L30.974,54.656 C30.079,54.656 29.311,54.113 28.983,53.339 C28.873,53.080 28.813,52.798 28.813,52.499 C28.813,52.200 28.873,51.917 28.983,51.659 C29.311,50.884 30.079,50.341 30.974,50.341 L30.975,50.341 C31.273,50.341 31.556,50.402 31.815,50.511 C32.590,50.838 33.135,51.605 33.135,52.499 C33.135,53.392 32.590,54.159 31.815,54.487 ZM30.975,40.272 C29.780,40.272 28.813,39.306 28.813,38.116 C28.813,36.923 29.780,35.958 30.975,35.958 C32.166,35.958 33.135,36.923 33.135,38.116 C33.135,39.306 32.166,40.272 30.975,40.272 ZM31.815,25.719 C31.556,25.829 31.273,25.889 30.975,25.889 L30.974,25.889 C30.079,25.889 29.311,25.346 28.983,24.571 C28.873,24.313 28.813,24.029 28.813,23.731 C28.813,23.433 28.873,23.149 28.983,22.891 C29.311,22.117 30.079,21.573 30.974,21.573 L30.975,21.573 C31.273,21.573 31.556,21.634 31.815,21.743 C32.590,22.070 33.135,22.837 33.135,23.731 C33.135,24.626 32.590,25.392 31.815,25.719 ZM23.770,76.232 C22.576,76.232 21.609,75.266 21.609,74.074 C21.609,72.883 22.576,71.916 23.770,71.916 C24.963,71.916 25.932,72.883 25.932,74.074 C25.932,75.266 24.963,76.232 23.770,76.232 ZM23.770,61.848 C22.576,61.848 21.609,60.882 21.609,59.691 C21.609,58.499 22.576,57.533 23.770,57.533 C24.963,57.533 25.932,58.499 25.932,59.691 C25.932,60.882 24.963,61.848 23.770,61.848 ZM23.770,47.465 C22.576,47.465 21.609,46.499 21.609,45.306 C21.609,44.116 22.576,43.149 23.770,43.149 C24.963,43.149 25.932,44.116 25.932,45.306 C25.932,46.499 24.963,47.465 23.770,47.465 ZM23.770,33.081 C22.576,33.081 21.609,32.114 21.609,30.924 C21.609,29.731 22.576,28.765 23.770,28.765 C24.963,28.765 25.932,29.731 25.932,30.924 C25.932,32.114 24.963,33.081 23.770,33.081 ZM16.566,69.040 C15.374,69.040 14.407,68.074 14.407,66.883 C14.407,65.691 15.374,64.725 16.566,64.725 C17.759,64.725 18.728,65.691 18.728,66.883 C18.728,68.074 17.759,69.040 16.566,69.040 ZM16.566,54.656 C15.374,54.656 14.407,53.691 14.407,52.499 C14.407,51.307 15.374,50.341 16.566,50.341 C17.759,50.341 18.728,51.307 18.728,52.499 C18.728,53.691 17.759,54.656 16.566,54.656 ZM16.566,40.272 C15.374,40.272 14.407,39.306 14.407,38.116 C14.407,36.923 15.374,35.958 16.566,35.958 C17.759,35.958 18.728,36.923 18.728,38.116 C18.728,39.306 17.759,40.272 16.566,40.272 ZM9.364,61.848 C8.170,61.848 7.202,60.882 7.202,59.691 C7.202,58.499 8.170,57.533 9.364,57.533 C10.557,57.533 11.524,58.499 11.524,59.691 C11.524,60.882 10.557,61.848 9.364,61.848 ZM9.364,47.465 C8.170,47.465 7.202,46.499 7.202,45.306 C7.202,44.116 8.170,43.149 9.364,43.149 C10.557,43.149 11.524,44.116 11.524,45.306 C11.524,46.499 10.557,47.465 9.364,47.465 ZM2.160,54.656 C0.966,54.656 -0.001,53.691 -0.001,52.499 C-0.001,51.307 0.966,50.341 2.160,50.341 C3.353,50.341 4.322,51.307 4.322,52.499 C4.322,53.691 3.353,54.656 2.160,54.656 ZM59.788,93.493 C60.979,93.493 61.948,94.458 61.948,95.650 C61.948,96.841 60.979,97.807 59.788,97.807 C58.593,97.807 57.625,96.841 57.625,95.650 C57.625,94.458 58.593,93.493 59.788,93.493 Z"/>
</svg>